%TF.GenerationSoftware,KiCad,Pcbnew,(6.0.4)*%
%TF.CreationDate,2022-05-01T19:30:29-04:00*%
%TF.ProjectId,ultrasonic,756c7472-6173-46f6-9e69-632e6b696361,rev?*%
%TF.SameCoordinates,Original*%
%TF.FileFunction,Legend,Top*%
%TF.FilePolarity,Positive*%
%FSLAX46Y46*%
G04 Gerber Fmt 4.6, Leading zero omitted, Abs format (unit mm)*
G04 Created by KiCad (PCBNEW (6.0.4)) date 2022-05-01 19:30:29*
%MOMM*%
%LPD*%
G01*
G04 APERTURE LIST*
%ADD10C,0.150000*%
%ADD11C,0.120000*%
%ADD12C,0.127000*%
%ADD13C,0.200000*%
G04 APERTURE END LIST*
D10*
%TO.C,*%
%TO.C,REF\u002A\u002A*%
X63666666Y-151252380D02*
X63333333Y-150776190D01*
X63095238Y-151252380D02*
X63095238Y-150252380D01*
X63476190Y-150252380D01*
X63571428Y-150300000D01*
X63619047Y-150347619D01*
X63666666Y-150442857D01*
X63666666Y-150585714D01*
X63619047Y-150680952D01*
X63571428Y-150728571D01*
X63476190Y-150776190D01*
X63095238Y-150776190D01*
X64095238Y-150728571D02*
X64428571Y-150728571D01*
X64571428Y-151252380D02*
X64095238Y-151252380D01*
X64095238Y-150252380D01*
X64571428Y-150252380D01*
X65333333Y-150728571D02*
X65000000Y-150728571D01*
X65000000Y-151252380D02*
X65000000Y-150252380D01*
X65476190Y-150252380D01*
X66000000Y-150252380D02*
X66000000Y-150490476D01*
X65761904Y-150395238D02*
X66000000Y-150490476D01*
X66238095Y-150395238D01*
X65857142Y-150680952D02*
X66000000Y-150490476D01*
X66142857Y-150680952D01*
X66761904Y-150252380D02*
X66761904Y-150490476D01*
X66523809Y-150395238D02*
X66761904Y-150490476D01*
X67000000Y-150395238D01*
X66619047Y-150680952D02*
X66761904Y-150490476D01*
X66904761Y-150680952D01*
X77182380Y-46333333D02*
X76706190Y-46666666D01*
X77182380Y-46904761D02*
X76182380Y-46904761D01*
X76182380Y-46523809D01*
X76230000Y-46428571D01*
X76277619Y-46380952D01*
X76372857Y-46333333D01*
X76515714Y-46333333D01*
X76610952Y-46380952D01*
X76658571Y-46428571D01*
X76706190Y-46523809D01*
X76706190Y-46904761D01*
X76658571Y-45904761D02*
X76658571Y-45571428D01*
X77182380Y-45428571D02*
X77182380Y-45904761D01*
X76182380Y-45904761D01*
X76182380Y-45428571D01*
X76658571Y-44666666D02*
X76658571Y-45000000D01*
X77182380Y-45000000D02*
X76182380Y-45000000D01*
X76182380Y-44523809D01*
X76182380Y-44000000D02*
X76420476Y-44000000D01*
X76325238Y-44238095D02*
X76420476Y-44000000D01*
X76325238Y-43761904D01*
X76610952Y-44142857D02*
X76420476Y-44000000D01*
X76610952Y-43857142D01*
X76182380Y-43238095D02*
X76420476Y-43238095D01*
X76325238Y-43476190D02*
X76420476Y-43238095D01*
X76325238Y-43000000D01*
X76610952Y-43380952D02*
X76420476Y-43238095D01*
X76610952Y-43095238D01*
X133387913Y-127115381D02*
X133054580Y-126639191D01*
X132816485Y-127115381D02*
X132816485Y-126115381D01*
X133197437Y-126115381D01*
X133292675Y-126163001D01*
X133340294Y-126210620D01*
X133387913Y-126305858D01*
X133387913Y-126448715D01*
X133340294Y-126543953D01*
X133292675Y-126591572D01*
X133197437Y-126639191D01*
X132816485Y-126639191D01*
X133816485Y-126591572D02*
X134149818Y-126591572D01*
X134292675Y-127115381D02*
X133816485Y-127115381D01*
X133816485Y-126115381D01*
X134292675Y-126115381D01*
X135054580Y-126591572D02*
X134721247Y-126591572D01*
X134721247Y-127115381D02*
X134721247Y-126115381D01*
X135197437Y-126115381D01*
X135721247Y-126115381D02*
X135721247Y-126353477D01*
X135483151Y-126258239D02*
X135721247Y-126353477D01*
X135959342Y-126258239D01*
X135578389Y-126543953D02*
X135721247Y-126353477D01*
X135864104Y-126543953D01*
X136483151Y-126115381D02*
X136483151Y-126353477D01*
X136245056Y-126258239D02*
X136483151Y-126353477D01*
X136721247Y-126258239D01*
X136340294Y-126543953D02*
X136483151Y-126353477D01*
X136626008Y-126543953D01*
X153387913Y-127115381D02*
X153054580Y-126639191D01*
X152816485Y-127115381D02*
X152816485Y-126115381D01*
X153197437Y-126115381D01*
X153292675Y-126163001D01*
X153340294Y-126210620D01*
X153387913Y-126305858D01*
X153387913Y-126448715D01*
X153340294Y-126543953D01*
X153292675Y-126591572D01*
X153197437Y-126639191D01*
X152816485Y-126639191D01*
X153816485Y-126591572D02*
X154149818Y-126591572D01*
X154292675Y-127115381D02*
X153816485Y-127115381D01*
X153816485Y-126115381D01*
X154292675Y-126115381D01*
X155054580Y-126591572D02*
X154721247Y-126591572D01*
X154721247Y-127115381D02*
X154721247Y-126115381D01*
X155197437Y-126115381D01*
X155721247Y-126115381D02*
X155721247Y-126353477D01*
X155483151Y-126258239D02*
X155721247Y-126353477D01*
X155959342Y-126258239D01*
X155578389Y-126543953D02*
X155721247Y-126353477D01*
X155864104Y-126543953D01*
X156483151Y-126115381D02*
X156483151Y-126353477D01*
X156245056Y-126258239D02*
X156483151Y-126353477D01*
X156721247Y-126258239D01*
X156340294Y-126543953D02*
X156483151Y-126353477D01*
X156626008Y-126543953D01*
X73387913Y-127076507D02*
X73054580Y-126600317D01*
X72816485Y-127076507D02*
X72816485Y-126076507D01*
X73197437Y-126076507D01*
X73292675Y-126124127D01*
X73340294Y-126171746D01*
X73387913Y-126266984D01*
X73387913Y-126409841D01*
X73340294Y-126505079D01*
X73292675Y-126552698D01*
X73197437Y-126600317D01*
X72816485Y-126600317D01*
X73816485Y-126552698D02*
X74149818Y-126552698D01*
X74292675Y-127076507D02*
X73816485Y-127076507D01*
X73816485Y-126076507D01*
X74292675Y-126076507D01*
X75054580Y-126552698D02*
X74721247Y-126552698D01*
X74721247Y-127076507D02*
X74721247Y-126076507D01*
X75197437Y-126076507D01*
X75721247Y-126076507D02*
X75721247Y-126314603D01*
X75483151Y-126219365D02*
X75721247Y-126314603D01*
X75959342Y-126219365D01*
X75578389Y-126505079D02*
X75721247Y-126314603D01*
X75864104Y-126505079D01*
X76483151Y-126076507D02*
X76483151Y-126314603D01*
X76245056Y-126219365D02*
X76483151Y-126314603D01*
X76721247Y-126219365D01*
X76340294Y-126505079D02*
X76483151Y-126314603D01*
X76626008Y-126505079D01*
X93361499Y-127076507D02*
X93028166Y-126600317D01*
X92790071Y-127076507D02*
X92790071Y-126076507D01*
X93171023Y-126076507D01*
X93266261Y-126124127D01*
X93313880Y-126171746D01*
X93361499Y-126266984D01*
X93361499Y-126409841D01*
X93313880Y-126505079D01*
X93266261Y-126552698D01*
X93171023Y-126600317D01*
X92790071Y-126600317D01*
X93790071Y-126552698D02*
X94123404Y-126552698D01*
X94266261Y-127076507D02*
X93790071Y-127076507D01*
X93790071Y-126076507D01*
X94266261Y-126076507D01*
X95028166Y-126552698D02*
X94694833Y-126552698D01*
X94694833Y-127076507D02*
X94694833Y-126076507D01*
X95171023Y-126076507D01*
X95694833Y-126076507D02*
X95694833Y-126314603D01*
X95456737Y-126219365D02*
X95694833Y-126314603D01*
X95932928Y-126219365D01*
X95551975Y-126505079D02*
X95694833Y-126314603D01*
X95837690Y-126505079D01*
X96456737Y-126076507D02*
X96456737Y-126314603D01*
X96218642Y-126219365D02*
X96456737Y-126314603D01*
X96694833Y-126219365D01*
X96313880Y-126505079D02*
X96456737Y-126314603D01*
X96599594Y-126505079D01*
X113387913Y-127115381D02*
X113054580Y-126639191D01*
X112816485Y-127115381D02*
X112816485Y-126115381D01*
X113197437Y-126115381D01*
X113292675Y-126163001D01*
X113340294Y-126210620D01*
X113387913Y-126305858D01*
X113387913Y-126448715D01*
X113340294Y-126543953D01*
X113292675Y-126591572D01*
X113197437Y-126639191D01*
X112816485Y-126639191D01*
X113816485Y-126591572D02*
X114149818Y-126591572D01*
X114292675Y-127115381D02*
X113816485Y-127115381D01*
X113816485Y-126115381D01*
X114292675Y-126115381D01*
X115054580Y-126591572D02*
X114721247Y-126591572D01*
X114721247Y-127115381D02*
X114721247Y-126115381D01*
X115197437Y-126115381D01*
X115721247Y-126115381D02*
X115721247Y-126353477D01*
X115483151Y-126258239D02*
X115721247Y-126353477D01*
X115959342Y-126258239D01*
X115578389Y-126543953D02*
X115721247Y-126353477D01*
X115864104Y-126543953D01*
X116483151Y-126115381D02*
X116483151Y-126353477D01*
X116245056Y-126258239D02*
X116483151Y-126353477D01*
X116721247Y-126258239D01*
X116340294Y-126543953D02*
X116483151Y-126353477D01*
X116626008Y-126543953D01*
X73266666Y-67076506D02*
X72933333Y-66600316D01*
X72695238Y-67076506D02*
X72695238Y-66076506D01*
X73076190Y-66076506D01*
X73171428Y-66124126D01*
X73219047Y-66171745D01*
X73266666Y-66266983D01*
X73266666Y-66409840D01*
X73219047Y-66505078D01*
X73171428Y-66552697D01*
X73076190Y-66600316D01*
X72695238Y-66600316D01*
X73695238Y-66552697D02*
X74028571Y-66552697D01*
X74171428Y-67076506D02*
X73695238Y-67076506D01*
X73695238Y-66076506D01*
X74171428Y-66076506D01*
X74933333Y-66552697D02*
X74600000Y-66552697D01*
X74600000Y-67076506D02*
X74600000Y-66076506D01*
X75076190Y-66076506D01*
X75600000Y-66076506D02*
X75600000Y-66314602D01*
X75361904Y-66219364D02*
X75600000Y-66314602D01*
X75838095Y-66219364D01*
X75457142Y-66505078D02*
X75600000Y-66314602D01*
X75742857Y-66505078D01*
X76361904Y-66076506D02*
X76361904Y-66314602D01*
X76123809Y-66219364D02*
X76361904Y-66314602D01*
X76600000Y-66219364D01*
X76219047Y-66505078D02*
X76361904Y-66314602D01*
X76504761Y-66505078D01*
X158789380Y-95933333D02*
X158313190Y-96266666D01*
X158789380Y-96504761D02*
X157789380Y-96504761D01*
X157789380Y-96123809D01*
X157837000Y-96028571D01*
X157884619Y-95980952D01*
X157979857Y-95933333D01*
X158122714Y-95933333D01*
X158217952Y-95980952D01*
X158265571Y-96028571D01*
X158313190Y-96123809D01*
X158313190Y-96504761D01*
X158265571Y-95504761D02*
X158265571Y-95171428D01*
X158789380Y-95028571D02*
X158789380Y-95504761D01*
X157789380Y-95504761D01*
X157789380Y-95028571D01*
X158265571Y-94266666D02*
X158265571Y-94600000D01*
X158789380Y-94600000D02*
X157789380Y-94600000D01*
X157789380Y-94123809D01*
X157789380Y-93600000D02*
X158027476Y-93600000D01*
X157932238Y-93838095D02*
X158027476Y-93600000D01*
X157932238Y-93361904D01*
X158217952Y-93742857D02*
X158027476Y-93600000D01*
X158217952Y-93457142D01*
X157789380Y-92838095D02*
X158027476Y-92838095D01*
X157932238Y-93076190D02*
X158027476Y-92838095D01*
X157932238Y-92600000D01*
X158217952Y-92980952D02*
X158027476Y-92838095D01*
X158217952Y-92695238D01*
X138789380Y-95933333D02*
X138313190Y-96266666D01*
X138789380Y-96504761D02*
X137789380Y-96504761D01*
X137789380Y-96123809D01*
X137837000Y-96028571D01*
X137884619Y-95980952D01*
X137979857Y-95933333D01*
X138122714Y-95933333D01*
X138217952Y-95980952D01*
X138265571Y-96028571D01*
X138313190Y-96123809D01*
X138313190Y-96504761D01*
X138265571Y-95504761D02*
X138265571Y-95171428D01*
X138789380Y-95028571D02*
X138789380Y-95504761D01*
X137789380Y-95504761D01*
X137789380Y-95028571D01*
X138265571Y-94266666D02*
X138265571Y-94600000D01*
X138789380Y-94600000D02*
X137789380Y-94600000D01*
X137789380Y-94123809D01*
X137789380Y-93600000D02*
X138027476Y-93600000D01*
X137932238Y-93838095D02*
X138027476Y-93600000D01*
X137932238Y-93361904D01*
X138217952Y-93742857D02*
X138027476Y-93600000D01*
X138217952Y-93457142D01*
X137789380Y-92838095D02*
X138027476Y-92838095D01*
X137932238Y-93076190D02*
X138027476Y-92838095D01*
X137932238Y-92600000D01*
X138217952Y-92980952D02*
X138027476Y-92838095D01*
X138217952Y-92695238D01*
X98789380Y-95933333D02*
X98313190Y-96266666D01*
X98789380Y-96504761D02*
X97789380Y-96504761D01*
X97789380Y-96123809D01*
X97837000Y-96028571D01*
X97884619Y-95980952D01*
X97979857Y-95933333D01*
X98122714Y-95933333D01*
X98217952Y-95980952D01*
X98265571Y-96028571D01*
X98313190Y-96123809D01*
X98313190Y-96504761D01*
X98265571Y-95504761D02*
X98265571Y-95171428D01*
X98789380Y-95028571D02*
X98789380Y-95504761D01*
X97789380Y-95504761D01*
X97789380Y-95028571D01*
X98265571Y-94266666D02*
X98265571Y-94600000D01*
X98789380Y-94600000D02*
X97789380Y-94600000D01*
X97789380Y-94123809D01*
X97789380Y-93600000D02*
X98027476Y-93600000D01*
X97932238Y-93838095D02*
X98027476Y-93600000D01*
X97932238Y-93361904D01*
X98217952Y-93742857D02*
X98027476Y-93600000D01*
X98217952Y-93457142D01*
X97789380Y-92838095D02*
X98027476Y-92838095D01*
X97932238Y-93076190D02*
X98027476Y-92838095D01*
X97932238Y-92600000D01*
X98217952Y-92980952D02*
X98027476Y-92838095D01*
X98217952Y-92695238D01*
X153266666Y-67115380D02*
X152933333Y-66639190D01*
X152695238Y-67115380D02*
X152695238Y-66115380D01*
X153076190Y-66115380D01*
X153171428Y-66163000D01*
X153219047Y-66210619D01*
X153266666Y-66305857D01*
X153266666Y-66448714D01*
X153219047Y-66543952D01*
X153171428Y-66591571D01*
X153076190Y-66639190D01*
X152695238Y-66639190D01*
X153695238Y-66591571D02*
X154028571Y-66591571D01*
X154171428Y-67115380D02*
X153695238Y-67115380D01*
X153695238Y-66115380D01*
X154171428Y-66115380D01*
X154933333Y-66591571D02*
X154600000Y-66591571D01*
X154600000Y-67115380D02*
X154600000Y-66115380D01*
X155076190Y-66115380D01*
X155600000Y-66115380D02*
X155600000Y-66353476D01*
X155361904Y-66258238D02*
X155600000Y-66353476D01*
X155838095Y-66258238D01*
X155457142Y-66543952D02*
X155600000Y-66353476D01*
X155742857Y-66543952D01*
X156361904Y-66115380D02*
X156361904Y-66353476D01*
X156123809Y-66258238D02*
X156361904Y-66353476D01*
X156600000Y-66258238D01*
X156219047Y-66543952D02*
X156361904Y-66353476D01*
X156504761Y-66543952D01*
X133266666Y-67115380D02*
X132933333Y-66639190D01*
X132695238Y-67115380D02*
X132695238Y-66115380D01*
X133076190Y-66115380D01*
X133171428Y-66163000D01*
X133219047Y-66210619D01*
X133266666Y-66305857D01*
X133266666Y-66448714D01*
X133219047Y-66543952D01*
X133171428Y-66591571D01*
X133076190Y-66639190D01*
X132695238Y-66639190D01*
X133695238Y-66591571D02*
X134028571Y-66591571D01*
X134171428Y-67115380D02*
X133695238Y-67115380D01*
X133695238Y-66115380D01*
X134171428Y-66115380D01*
X134933333Y-66591571D02*
X134600000Y-66591571D01*
X134600000Y-67115380D02*
X134600000Y-66115380D01*
X135076190Y-66115380D01*
X135600000Y-66115380D02*
X135600000Y-66353476D01*
X135361904Y-66258238D02*
X135600000Y-66353476D01*
X135838095Y-66258238D01*
X135457142Y-66543952D02*
X135600000Y-66353476D01*
X135742857Y-66543952D01*
X136361904Y-66115380D02*
X136361904Y-66353476D01*
X136123809Y-66258238D02*
X136361904Y-66353476D01*
X136600000Y-66258238D01*
X136219047Y-66543952D02*
X136361904Y-66353476D01*
X136504761Y-66543952D01*
X113266666Y-67115380D02*
X112933333Y-66639190D01*
X112695238Y-67115380D02*
X112695238Y-66115380D01*
X113076190Y-66115380D01*
X113171428Y-66163000D01*
X113219047Y-66210619D01*
X113266666Y-66305857D01*
X113266666Y-66448714D01*
X113219047Y-66543952D01*
X113171428Y-66591571D01*
X113076190Y-66639190D01*
X112695238Y-66639190D01*
X113695238Y-66591571D02*
X114028571Y-66591571D01*
X114171428Y-67115380D02*
X113695238Y-67115380D01*
X113695238Y-66115380D01*
X114171428Y-66115380D01*
X114933333Y-66591571D02*
X114600000Y-66591571D01*
X114600000Y-67115380D02*
X114600000Y-66115380D01*
X115076190Y-66115380D01*
X115600000Y-66115380D02*
X115600000Y-66353476D01*
X115361904Y-66258238D02*
X115600000Y-66353476D01*
X115838095Y-66258238D01*
X115457142Y-66543952D02*
X115600000Y-66353476D01*
X115742857Y-66543952D01*
X116361904Y-66115380D02*
X116361904Y-66353476D01*
X116123809Y-66258238D02*
X116361904Y-66353476D01*
X116600000Y-66258238D01*
X116219047Y-66543952D02*
X116361904Y-66353476D01*
X116504761Y-66543952D01*
X93240252Y-67076506D02*
X92906919Y-66600316D01*
X92668824Y-67076506D02*
X92668824Y-66076506D01*
X93049776Y-66076506D01*
X93145014Y-66124126D01*
X93192633Y-66171745D01*
X93240252Y-66266983D01*
X93240252Y-66409840D01*
X93192633Y-66505078D01*
X93145014Y-66552697D01*
X93049776Y-66600316D01*
X92668824Y-66600316D01*
X93668824Y-66552697D02*
X94002157Y-66552697D01*
X94145014Y-67076506D02*
X93668824Y-67076506D01*
X93668824Y-66076506D01*
X94145014Y-66076506D01*
X94906919Y-66552697D02*
X94573586Y-66552697D01*
X94573586Y-67076506D02*
X94573586Y-66076506D01*
X95049776Y-66076506D01*
X95573586Y-66076506D02*
X95573586Y-66314602D01*
X95335490Y-66219364D02*
X95573586Y-66314602D01*
X95811681Y-66219364D01*
X95430728Y-66505078D02*
X95573586Y-66314602D01*
X95716443Y-66505078D01*
X96335490Y-66076506D02*
X96335490Y-66314602D01*
X96097395Y-66219364D02*
X96335490Y-66314602D01*
X96573586Y-66219364D01*
X96192633Y-66505078D02*
X96335490Y-66314602D01*
X96478347Y-66505078D01*
D11*
X78170000Y-45000000D02*
X78170000Y-43670000D01*
X80770000Y-43670000D02*
X85910000Y-43670000D01*
X80770000Y-46330000D02*
X85910000Y-46330000D01*
X80770000Y-46330000D02*
X80770000Y-43670000D01*
X78170000Y-43670000D02*
X79500000Y-43670000D01*
X85910000Y-46330000D02*
X85910000Y-43670000D01*
D12*
X133126247Y-132525001D02*
X137116247Y-132525001D01*
X133126247Y-127475001D02*
X137116247Y-127475001D01*
D13*
X130971247Y-127495001D02*
G75*
G03*
X130971247Y-127495001I-100000J0D01*
G01*
D12*
X153126247Y-132525001D02*
X157116247Y-132525001D01*
X153126247Y-127475001D02*
X157116247Y-127475001D01*
D13*
X150971247Y-127495001D02*
G75*
G03*
X150971247Y-127495001I-100000J0D01*
G01*
D12*
X73126247Y-132486127D02*
X77116247Y-132486127D01*
X73126247Y-127436127D02*
X77116247Y-127436127D01*
D13*
X70971247Y-127456127D02*
G75*
G03*
X70971247Y-127456127I-100000J0D01*
G01*
D12*
X93099833Y-132486127D02*
X97089833Y-132486127D01*
X93099833Y-127436127D02*
X97089833Y-127436127D01*
D13*
X90944833Y-127456127D02*
G75*
G03*
X90944833Y-127456127I-100000J0D01*
G01*
D12*
X113126247Y-132525001D02*
X117116247Y-132525001D01*
X113126247Y-127475001D02*
X117116247Y-127475001D01*
D13*
X110971247Y-127495001D02*
G75*
G03*
X110971247Y-127495001I-100000J0D01*
G01*
D12*
X73005000Y-72486126D02*
X76995000Y-72486126D01*
X73005000Y-67436126D02*
X76995000Y-67436126D01*
D13*
X70850000Y-67456126D02*
G75*
G03*
X70850000Y-67456126I-100000J0D01*
G01*
D12*
X152475000Y-93005000D02*
X152475000Y-96995000D01*
X157525000Y-93005000D02*
X157525000Y-96995000D01*
D13*
X157605000Y-90750000D02*
G75*
G03*
X157605000Y-90750000I-100000J0D01*
G01*
D12*
X132475000Y-93005000D02*
X132475000Y-96995000D01*
X137525000Y-93005000D02*
X137525000Y-96995000D01*
D13*
X137605000Y-90750000D02*
G75*
G03*
X137605000Y-90750000I-100000J0D01*
G01*
X97605000Y-90750000D02*
G75*
G03*
X97605000Y-90750000I-100000J0D01*
G01*
D12*
X97525000Y-93005000D02*
X97525000Y-96995000D01*
X92475000Y-93005000D02*
X92475000Y-96995000D01*
D13*
X150850000Y-67495000D02*
G75*
G03*
X150850000Y-67495000I-100000J0D01*
G01*
D12*
X153005000Y-67475000D02*
X156995000Y-67475000D01*
X153005000Y-72525000D02*
X156995000Y-72525000D01*
D13*
X130850000Y-67495000D02*
G75*
G03*
X130850000Y-67495000I-100000J0D01*
G01*
D12*
X133005000Y-67475000D02*
X136995000Y-67475000D01*
X133005000Y-72525000D02*
X136995000Y-72525000D01*
D13*
X110850000Y-67495000D02*
G75*
G03*
X110850000Y-67495000I-100000J0D01*
G01*
D12*
X113005000Y-67475000D02*
X116995000Y-67475000D01*
X113005000Y-72525000D02*
X116995000Y-72525000D01*
D13*
X90823586Y-67456126D02*
G75*
G03*
X90823586Y-67456126I-100000J0D01*
G01*
D12*
X92978586Y-67436126D02*
X96968586Y-67436126D01*
X92978586Y-72486126D02*
X96968586Y-72486126D01*
%TD*%
M02*
