%TF.GenerationSoftware,KiCad,Pcbnew,(6.0.4)*%
%TF.CreationDate,2022-05-01T19:30:29-04:00*%
%TF.ProjectId,ultrasonic,756c7472-6173-46f6-9e69-632e6b696361,rev?*%
%TF.SameCoordinates,Original*%
%TF.FileFunction,Legend,Bot*%
%TF.FilePolarity,Positive*%
%FSLAX46Y46*%
G04 Gerber Fmt 4.6, Leading zero omitted, Abs format (unit mm)*
G04 Created by KiCad (PCBNEW (6.0.4)) date 2022-05-01 19:30:29*
%MOMM*%
%LPD*%
G01*
G04 APERTURE LIST*
%ADD10C,0.150000*%
%ADD11C,0.300000*%
%ADD12C,0.120000*%
G04 APERTURE END LIST*
D10*
X75761904Y-44500000D02*
X75857142Y-44452380D01*
X76000000Y-44452380D01*
X76142857Y-44500000D01*
X76238095Y-44595238D01*
X76285714Y-44690476D01*
X76333333Y-44880952D01*
X76333333Y-45023809D01*
X76285714Y-45214285D01*
X76238095Y-45309523D01*
X76142857Y-45404761D01*
X76000000Y-45452380D01*
X75904761Y-45452380D01*
X75761904Y-45404761D01*
X75714285Y-45357142D01*
X75714285Y-45023809D01*
X75904761Y-45023809D01*
X75285714Y-45452380D02*
X75285714Y-44452380D01*
X74714285Y-45452380D01*
X74714285Y-44452380D01*
X74238095Y-45452380D02*
X74238095Y-44452380D01*
X74000000Y-44452380D01*
X73857142Y-44500000D01*
X73761904Y-44595238D01*
X73714285Y-44690476D01*
X73666666Y-44880952D01*
X73666666Y-45023809D01*
X73714285Y-45214285D01*
X73761904Y-45309523D01*
X73857142Y-45404761D01*
X74000000Y-45452380D01*
X74238095Y-45452380D01*
D11*
X71571428Y-150607142D02*
X70428571Y-150607142D01*
X76571428Y-150607142D02*
X75428571Y-150607142D01*
X76000000Y-151178571D02*
X76000000Y-150035714D01*
X102571429Y-145007143D02*
X101428572Y-145007143D01*
X82571428Y-145007142D02*
X81428571Y-145007142D01*
X82450181Y-115007143D02*
X81307324Y-115007143D01*
X142571428Y-114995772D02*
X141428571Y-114995772D01*
X142571428Y-124995772D02*
X141428571Y-124995772D01*
X142000000Y-125567201D02*
X142000000Y-124424344D01*
X102571429Y-135007143D02*
X101428572Y-135007143D01*
X102000001Y-135578572D02*
X102000001Y-134435715D01*
X82571428Y-135007142D02*
X81428571Y-135007142D01*
X82000000Y-135578571D02*
X82000000Y-134435714D01*
X142560057Y-135007143D02*
X141417200Y-135007143D01*
X141988629Y-135578572D02*
X141988629Y-134435715D01*
X102571429Y-125007143D02*
X101428572Y-125007143D01*
X102000001Y-125578572D02*
X102000001Y-124435715D01*
X122554373Y-145007143D02*
X121411516Y-145007143D01*
X162571429Y-135007143D02*
X161428572Y-135007143D01*
X162000001Y-135578572D02*
X162000001Y-134435715D01*
X162571429Y-115007143D02*
X161428572Y-115007143D01*
X82450181Y-125007143D02*
X81307324Y-125007143D01*
X81878753Y-125578572D02*
X81878753Y-124435715D01*
X102571429Y-115007143D02*
X101428572Y-115007143D01*
X122571429Y-124995772D02*
X121428572Y-124995772D01*
X122000001Y-125567201D02*
X122000001Y-124424344D01*
X162571429Y-125007143D02*
X161428572Y-125007143D01*
X162000001Y-125578572D02*
X162000001Y-124435715D01*
X122571429Y-114995772D02*
X121428572Y-114995772D01*
X122554373Y-135007143D02*
X121411516Y-135007143D01*
X121982945Y-135578572D02*
X121982945Y-134435715D01*
X162571429Y-145007143D02*
X161428572Y-145007143D01*
X142560057Y-145007143D02*
X141417200Y-145007143D01*
X102692676Y-95007142D02*
X101549819Y-95007142D01*
X102692676Y-105007142D02*
X101549819Y-105007142D01*
X102121248Y-105578571D02*
X102121248Y-104435714D01*
X82571428Y-95007142D02*
X81428571Y-95007142D01*
X122692676Y-104995771D02*
X121549819Y-104995771D01*
X122121248Y-105567200D02*
X122121248Y-104424343D01*
X122692676Y-94995771D02*
X121549819Y-94995771D01*
X162692676Y-95007142D02*
X161549819Y-95007142D01*
X82571428Y-105007142D02*
X81428571Y-105007142D01*
X82000000Y-105578571D02*
X82000000Y-104435714D01*
X162692676Y-105007142D02*
X161549819Y-105007142D01*
X162121248Y-105578571D02*
X162121248Y-104435714D01*
X142692675Y-104995771D02*
X141549818Y-104995771D01*
X142121247Y-105567200D02*
X142121247Y-104424343D01*
X142692675Y-94995771D02*
X141549818Y-94995771D01*
X122692676Y-64995771D02*
X121549819Y-64995771D01*
X122121248Y-65567200D02*
X122121248Y-64424343D01*
X142692675Y-64995771D02*
X141549818Y-64995771D01*
X142121247Y-65567200D02*
X142121247Y-64424343D01*
X102692676Y-55007142D02*
X101549819Y-55007142D01*
X162692676Y-55007142D02*
X161549819Y-55007142D01*
X142692675Y-54995771D02*
X141549818Y-54995771D01*
X122692676Y-54995771D02*
X121549819Y-54995771D01*
X102692676Y-65007142D02*
X101549819Y-65007142D01*
X102121248Y-65578571D02*
X102121248Y-64435714D01*
X162692676Y-65007142D02*
X161549819Y-65007142D01*
X162121248Y-65578571D02*
X162121248Y-64435714D01*
X82571428Y-65007142D02*
X81428571Y-65007142D01*
X82000000Y-65578571D02*
X82000000Y-64435714D01*
X162692676Y-75007142D02*
X161549819Y-75007142D01*
X162121248Y-75578571D02*
X162121248Y-74435714D01*
X82571428Y-55007142D02*
X81428571Y-55007142D01*
X82692675Y-75007141D02*
X81549818Y-75007141D01*
X82121247Y-75578570D02*
X82121247Y-74435713D01*
X102692676Y-75007142D02*
X101549819Y-75007142D01*
X102121248Y-75578571D02*
X102121248Y-74435714D01*
X102692676Y-85007142D02*
X101549819Y-85007142D01*
X122675620Y-85007142D02*
X121532763Y-85007142D01*
X142681304Y-75007142D02*
X141538447Y-75007142D01*
X142109876Y-75578571D02*
X142109876Y-74435714D01*
X82692675Y-85007141D02*
X81549818Y-85007141D01*
X122675620Y-75007142D02*
X121532763Y-75007142D01*
X122104192Y-75578571D02*
X122104192Y-74435714D01*
X162692676Y-85007142D02*
X161549819Y-85007142D01*
X142681304Y-85007142D02*
X141538447Y-85007142D01*
D10*
%TO.C,REF\u002A\u002A*%
X72238095Y-154304380D02*
X72571428Y-153828190D01*
X72809523Y-154304380D02*
X72809523Y-153304380D01*
X72428571Y-153304380D01*
X72333333Y-153352000D01*
X72285714Y-153399619D01*
X72238095Y-153494857D01*
X72238095Y-153637714D01*
X72285714Y-153732952D01*
X72333333Y-153780571D01*
X72428571Y-153828190D01*
X72809523Y-153828190D01*
X71809523Y-153780571D02*
X71476190Y-153780571D01*
X71333333Y-154304380D02*
X71809523Y-154304380D01*
X71809523Y-153304380D01*
X71333333Y-153304380D01*
X70571428Y-153780571D02*
X70904762Y-153780571D01*
X70904762Y-154304380D02*
X70904762Y-153304380D01*
X70428571Y-153304380D01*
X69904762Y-153304380D02*
X69904762Y-153542476D01*
X70142857Y-153447238D02*
X69904762Y-153542476D01*
X69666666Y-153447238D01*
X70047619Y-153732952D02*
X69904762Y-153542476D01*
X69761904Y-153732952D01*
X69142857Y-153304380D02*
X69142857Y-153542476D01*
X69380952Y-153447238D02*
X69142857Y-153542476D01*
X68904762Y-153447238D01*
X69285714Y-153732952D02*
X69142857Y-153542476D01*
X69000000Y-153732952D01*
X77238095Y-153682380D02*
X77571428Y-153206190D01*
X77809523Y-153682380D02*
X77809523Y-152682380D01*
X77428571Y-152682380D01*
X77333333Y-152730000D01*
X77285714Y-152777619D01*
X77238095Y-152872857D01*
X77238095Y-153015714D01*
X77285714Y-153110952D01*
X77333333Y-153158571D01*
X77428571Y-153206190D01*
X77809523Y-153206190D01*
X76809523Y-153158571D02*
X76476190Y-153158571D01*
X76333333Y-153682380D02*
X76809523Y-153682380D01*
X76809523Y-152682380D01*
X76333333Y-152682380D01*
X75571428Y-153158571D02*
X75904762Y-153158571D01*
X75904762Y-153682380D02*
X75904762Y-152682380D01*
X75428571Y-152682380D01*
X74904762Y-152682380D02*
X74904762Y-152920476D01*
X75142857Y-152825238D02*
X74904762Y-152920476D01*
X74666666Y-152825238D01*
X75047619Y-153110952D02*
X74904762Y-152920476D01*
X74761904Y-153110952D01*
X74142857Y-152682380D02*
X74142857Y-152920476D01*
X74380952Y-152825238D02*
X74142857Y-152920476D01*
X73904762Y-152825238D01*
X74285714Y-153110952D02*
X74142857Y-152920476D01*
X74000000Y-153110952D01*
X67333333Y-133047380D02*
X67666666Y-132571190D01*
X67904761Y-133047380D02*
X67904761Y-132047380D01*
X67523809Y-132047380D01*
X67428571Y-132095000D01*
X67380952Y-132142619D01*
X67333333Y-132237857D01*
X67333333Y-132380714D01*
X67380952Y-132475952D01*
X67428571Y-132523571D01*
X67523809Y-132571190D01*
X67904761Y-132571190D01*
X66904761Y-132523571D02*
X66571428Y-132523571D01*
X66428571Y-133047380D02*
X66904761Y-133047380D01*
X66904761Y-132047380D01*
X66428571Y-132047380D01*
X65666666Y-132523571D02*
X66000000Y-132523571D01*
X66000000Y-133047380D02*
X66000000Y-132047380D01*
X65523809Y-132047380D01*
X65000000Y-132047380D02*
X65000000Y-132285476D01*
X65238095Y-132190238D02*
X65000000Y-132285476D01*
X64761904Y-132190238D01*
X65142857Y-132475952D02*
X65000000Y-132285476D01*
X64857142Y-132475952D01*
X64238095Y-132047380D02*
X64238095Y-132285476D01*
X64476190Y-132190238D02*
X64238095Y-132285476D01*
X64000000Y-132190238D01*
X64380952Y-132475952D02*
X64238095Y-132285476D01*
X64095238Y-132475952D01*
X67333333Y-127857380D02*
X67666666Y-127381190D01*
X67904761Y-127857380D02*
X67904761Y-126857380D01*
X67523809Y-126857380D01*
X67428571Y-126905000D01*
X67380952Y-126952619D01*
X67333333Y-127047857D01*
X67333333Y-127190714D01*
X67380952Y-127285952D01*
X67428571Y-127333571D01*
X67523809Y-127381190D01*
X67904761Y-127381190D01*
X66904761Y-127333571D02*
X66571428Y-127333571D01*
X66428571Y-127857380D02*
X66904761Y-127857380D01*
X66904761Y-126857380D01*
X66428571Y-126857380D01*
X65666666Y-127333571D02*
X66000000Y-127333571D01*
X66000000Y-127857380D02*
X66000000Y-126857380D01*
X65523809Y-126857380D01*
X65000000Y-126857380D02*
X65000000Y-127095476D01*
X65238095Y-127000238D02*
X65000000Y-127095476D01*
X64761904Y-127000238D01*
X65142857Y-127285952D02*
X65000000Y-127095476D01*
X64857142Y-127285952D01*
X64238095Y-126857380D02*
X64238095Y-127095476D01*
X64476190Y-127000238D02*
X64238095Y-127095476D01*
X64000000Y-127000238D01*
X64380952Y-127285952D02*
X64238095Y-127095476D01*
X64095238Y-127285952D01*
X67333333Y-107857380D02*
X67666666Y-107381190D01*
X67904761Y-107857380D02*
X67904761Y-106857380D01*
X67523809Y-106857380D01*
X67428571Y-106905000D01*
X67380952Y-106952619D01*
X67333333Y-107047857D01*
X67333333Y-107190714D01*
X67380952Y-107285952D01*
X67428571Y-107333571D01*
X67523809Y-107381190D01*
X67904761Y-107381190D01*
X66904761Y-107333571D02*
X66571428Y-107333571D01*
X66428571Y-107857380D02*
X66904761Y-107857380D01*
X66904761Y-106857380D01*
X66428571Y-106857380D01*
X65666666Y-107333571D02*
X66000000Y-107333571D01*
X66000000Y-107857380D02*
X66000000Y-106857380D01*
X65523809Y-106857380D01*
X65000000Y-106857380D02*
X65000000Y-107095476D01*
X65238095Y-107000238D02*
X65000000Y-107095476D01*
X64761904Y-107000238D01*
X65142857Y-107285952D02*
X65000000Y-107095476D01*
X64857142Y-107285952D01*
X64238095Y-106857380D02*
X64238095Y-107095476D01*
X64476190Y-107000238D02*
X64238095Y-107095476D01*
X64000000Y-107000238D01*
X64380952Y-107285952D02*
X64238095Y-107095476D01*
X64095238Y-107285952D01*
X67333333Y-73047380D02*
X67666666Y-72571190D01*
X67904761Y-73047380D02*
X67904761Y-72047380D01*
X67523809Y-72047380D01*
X67428571Y-72095000D01*
X67380952Y-72142619D01*
X67333333Y-72237857D01*
X67333333Y-72380714D01*
X67380952Y-72475952D01*
X67428571Y-72523571D01*
X67523809Y-72571190D01*
X67904761Y-72571190D01*
X66904761Y-72523571D02*
X66571428Y-72523571D01*
X66428571Y-73047380D02*
X66904761Y-73047380D01*
X66904761Y-72047380D01*
X66428571Y-72047380D01*
X65666666Y-72523571D02*
X66000000Y-72523571D01*
X66000000Y-73047380D02*
X66000000Y-72047380D01*
X65523809Y-72047380D01*
X65000000Y-72047380D02*
X65000000Y-72285476D01*
X65238095Y-72190238D02*
X65000000Y-72285476D01*
X64761904Y-72190238D01*
X65142857Y-72475952D02*
X65000000Y-72285476D01*
X64857142Y-72475952D01*
X64238095Y-72047380D02*
X64238095Y-72285476D01*
X64476190Y-72190238D02*
X64238095Y-72285476D01*
X64000000Y-72190238D01*
X64380952Y-72475952D02*
X64238095Y-72285476D01*
X64095238Y-72475952D01*
X67333333Y-67857380D02*
X67666666Y-67381190D01*
X67904761Y-67857380D02*
X67904761Y-66857380D01*
X67523809Y-66857380D01*
X67428571Y-66905000D01*
X67380952Y-66952619D01*
X67333333Y-67047857D01*
X67333333Y-67190714D01*
X67380952Y-67285952D01*
X67428571Y-67333571D01*
X67523809Y-67381190D01*
X67904761Y-67381190D01*
X66904761Y-67333571D02*
X66571428Y-67333571D01*
X66428571Y-67857380D02*
X66904761Y-67857380D01*
X66904761Y-66857380D01*
X66428571Y-66857380D01*
X65666666Y-67333571D02*
X66000000Y-67333571D01*
X66000000Y-67857380D02*
X66000000Y-66857380D01*
X65523809Y-66857380D01*
X65000000Y-66857380D02*
X65000000Y-67095476D01*
X65238095Y-67000238D02*
X65000000Y-67095476D01*
X64761904Y-67000238D01*
X65142857Y-67285952D02*
X65000000Y-67095476D01*
X64857142Y-67285952D01*
X64238095Y-66857380D02*
X64238095Y-67095476D01*
X64476190Y-67000238D02*
X64238095Y-67095476D01*
X64000000Y-67000238D01*
X64380952Y-67285952D02*
X64238095Y-67095476D01*
X64095238Y-67285952D01*
X136294580Y-148072381D02*
X136627913Y-147596191D01*
X136866008Y-148072381D02*
X136866008Y-147072381D01*
X136485056Y-147072381D01*
X136389818Y-147120001D01*
X136342199Y-147167620D01*
X136294580Y-147262858D01*
X136294580Y-147405715D01*
X136342199Y-147500953D01*
X136389818Y-147548572D01*
X136485056Y-147596191D01*
X136866008Y-147596191D01*
X135866008Y-147548572D02*
X135532675Y-147548572D01*
X135389818Y-148072381D02*
X135866008Y-148072381D01*
X135866008Y-147072381D01*
X135389818Y-147072381D01*
X134627913Y-147548572D02*
X134961247Y-147548572D01*
X134961247Y-148072381D02*
X134961247Y-147072381D01*
X134485056Y-147072381D01*
X133961247Y-147072381D02*
X133961247Y-147310477D01*
X134199342Y-147215239D02*
X133961247Y-147310477D01*
X133723151Y-147215239D01*
X134104104Y-147500953D02*
X133961247Y-147310477D01*
X133818389Y-147500953D01*
X133199342Y-147072381D02*
X133199342Y-147310477D01*
X133437437Y-147215239D02*
X133199342Y-147310477D01*
X132961247Y-147215239D01*
X133342199Y-147500953D02*
X133199342Y-147310477D01*
X133056485Y-147500953D01*
X136283209Y-128061010D02*
X136616542Y-127584820D01*
X136854637Y-128061010D02*
X136854637Y-127061010D01*
X136473685Y-127061010D01*
X136378447Y-127108630D01*
X136330828Y-127156249D01*
X136283209Y-127251487D01*
X136283209Y-127394344D01*
X136330828Y-127489582D01*
X136378447Y-127537201D01*
X136473685Y-127584820D01*
X136854637Y-127584820D01*
X135854637Y-127537201D02*
X135521304Y-127537201D01*
X135378447Y-128061010D02*
X135854637Y-128061010D01*
X135854637Y-127061010D01*
X135378447Y-127061010D01*
X134616542Y-127537201D02*
X134949876Y-127537201D01*
X134949876Y-128061010D02*
X134949876Y-127061010D01*
X134473685Y-127061010D01*
X133949876Y-127061010D02*
X133949876Y-127299106D01*
X134187971Y-127203868D02*
X133949876Y-127299106D01*
X133711780Y-127203868D01*
X134092733Y-127489582D02*
X133949876Y-127299106D01*
X133807018Y-127489582D01*
X133187971Y-127061010D02*
X133187971Y-127299106D01*
X133426066Y-127203868D02*
X133187971Y-127299106D01*
X132949876Y-127203868D01*
X133330828Y-127489582D02*
X133187971Y-127299106D01*
X133045114Y-127489582D01*
X116294580Y-148072381D02*
X116627913Y-147596191D01*
X116866008Y-148072381D02*
X116866008Y-147072381D01*
X116485056Y-147072381D01*
X116389818Y-147120001D01*
X116342199Y-147167620D01*
X116294580Y-147262858D01*
X116294580Y-147405715D01*
X116342199Y-147500953D01*
X116389818Y-147548572D01*
X116485056Y-147596191D01*
X116866008Y-147596191D01*
X115866008Y-147548572D02*
X115532675Y-147548572D01*
X115389818Y-148072381D02*
X115866008Y-148072381D01*
X115866008Y-147072381D01*
X115389818Y-147072381D01*
X114627913Y-147548572D02*
X114961247Y-147548572D01*
X114961247Y-148072381D02*
X114961247Y-147072381D01*
X114485056Y-147072381D01*
X113961247Y-147072381D02*
X113961247Y-147310477D01*
X114199342Y-147215239D02*
X113961247Y-147310477D01*
X113723151Y-147215239D01*
X114104104Y-147500953D02*
X113961247Y-147310477D01*
X113818389Y-147500953D01*
X113199342Y-147072381D02*
X113199342Y-147310477D01*
X113437437Y-147215239D02*
X113199342Y-147310477D01*
X112961247Y-147215239D01*
X113342199Y-147500953D02*
X113199342Y-147310477D01*
X113056485Y-147500953D01*
X76294580Y-128072381D02*
X76627913Y-127596191D01*
X76866008Y-128072381D02*
X76866008Y-127072381D01*
X76485056Y-127072381D01*
X76389818Y-127120001D01*
X76342199Y-127167620D01*
X76294580Y-127262858D01*
X76294580Y-127405715D01*
X76342199Y-127500953D01*
X76389818Y-127548572D01*
X76485056Y-127596191D01*
X76866008Y-127596191D01*
X75866008Y-127548572D02*
X75532675Y-127548572D01*
X75389818Y-128072381D02*
X75866008Y-128072381D01*
X75866008Y-127072381D01*
X75389818Y-127072381D01*
X74627913Y-127548572D02*
X74961247Y-127548572D01*
X74961247Y-128072381D02*
X74961247Y-127072381D01*
X74485056Y-127072381D01*
X73961247Y-127072381D02*
X73961247Y-127310477D01*
X74199342Y-127215239D02*
X73961247Y-127310477D01*
X73723151Y-127215239D01*
X74104104Y-127500953D02*
X73961247Y-127310477D01*
X73818389Y-127500953D01*
X73199342Y-127072381D02*
X73199342Y-127310477D01*
X73437437Y-127215239D02*
X73199342Y-127310477D01*
X72961247Y-127215239D01*
X73342199Y-127500953D02*
X73199342Y-127310477D01*
X73056485Y-127500953D01*
X76173333Y-148072380D02*
X76506666Y-147596190D01*
X76744761Y-148072380D02*
X76744761Y-147072380D01*
X76363809Y-147072380D01*
X76268571Y-147120000D01*
X76220952Y-147167619D01*
X76173333Y-147262857D01*
X76173333Y-147405714D01*
X76220952Y-147500952D01*
X76268571Y-147548571D01*
X76363809Y-147596190D01*
X76744761Y-147596190D01*
X75744761Y-147548571D02*
X75411428Y-147548571D01*
X75268571Y-148072380D02*
X75744761Y-148072380D01*
X75744761Y-147072380D01*
X75268571Y-147072380D01*
X74506666Y-147548571D02*
X74840000Y-147548571D01*
X74840000Y-148072380D02*
X74840000Y-147072380D01*
X74363809Y-147072380D01*
X73840000Y-147072380D02*
X73840000Y-147310476D01*
X74078095Y-147215238D02*
X73840000Y-147310476D01*
X73601904Y-147215238D01*
X73982857Y-147500952D02*
X73840000Y-147310476D01*
X73697142Y-147500952D01*
X73078095Y-147072380D02*
X73078095Y-147310476D01*
X73316190Y-147215238D02*
X73078095Y-147310476D01*
X72840000Y-147215238D01*
X73220952Y-147500952D02*
X73078095Y-147310476D01*
X72935238Y-147500952D01*
X96294580Y-148072381D02*
X96627913Y-147596191D01*
X96866008Y-148072381D02*
X96866008Y-147072381D01*
X96485056Y-147072381D01*
X96389818Y-147120001D01*
X96342199Y-147167620D01*
X96294580Y-147262858D01*
X96294580Y-147405715D01*
X96342199Y-147500953D01*
X96389818Y-147548572D01*
X96485056Y-147596191D01*
X96866008Y-147596191D01*
X95866008Y-147548572D02*
X95532675Y-147548572D01*
X95389818Y-148072381D02*
X95866008Y-148072381D01*
X95866008Y-147072381D01*
X95389818Y-147072381D01*
X94627913Y-147548572D02*
X94961247Y-147548572D01*
X94961247Y-148072381D02*
X94961247Y-147072381D01*
X94485056Y-147072381D01*
X93961247Y-147072381D02*
X93961247Y-147310477D01*
X94199342Y-147215239D02*
X93961247Y-147310477D01*
X93723151Y-147215239D01*
X94104104Y-147500953D02*
X93961247Y-147310477D01*
X93818389Y-147500953D01*
X93199342Y-147072381D02*
X93199342Y-147310477D01*
X93437437Y-147215239D02*
X93199342Y-147310477D01*
X92961247Y-147215239D01*
X93342199Y-147500953D02*
X93199342Y-147310477D01*
X93056485Y-147500953D01*
X156294580Y-148072381D02*
X156627913Y-147596191D01*
X156866008Y-148072381D02*
X156866008Y-147072381D01*
X156485056Y-147072381D01*
X156389818Y-147120001D01*
X156342199Y-147167620D01*
X156294580Y-147262858D01*
X156294580Y-147405715D01*
X156342199Y-147500953D01*
X156389818Y-147548572D01*
X156485056Y-147596191D01*
X156866008Y-147596191D01*
X155866008Y-147548572D02*
X155532675Y-147548572D01*
X155389818Y-148072381D02*
X155866008Y-148072381D01*
X155866008Y-147072381D01*
X155389818Y-147072381D01*
X154627913Y-147548572D02*
X154961247Y-147548572D01*
X154961247Y-148072381D02*
X154961247Y-147072381D01*
X154485056Y-147072381D01*
X153961247Y-147072381D02*
X153961247Y-147310477D01*
X154199342Y-147215239D02*
X153961247Y-147310477D01*
X153723151Y-147215239D01*
X154104104Y-147500953D02*
X153961247Y-147310477D01*
X153818389Y-147500953D01*
X153199342Y-147072381D02*
X153199342Y-147310477D01*
X153437437Y-147215239D02*
X153199342Y-147310477D01*
X152961247Y-147215239D01*
X153342199Y-147500953D02*
X153199342Y-147310477D01*
X153056485Y-147500953D01*
X96294580Y-128072381D02*
X96627913Y-127596191D01*
X96866008Y-128072381D02*
X96866008Y-127072381D01*
X96485056Y-127072381D01*
X96389818Y-127120001D01*
X96342199Y-127167620D01*
X96294580Y-127262858D01*
X96294580Y-127405715D01*
X96342199Y-127500953D01*
X96389818Y-127548572D01*
X96485056Y-127596191D01*
X96866008Y-127596191D01*
X95866008Y-127548572D02*
X95532675Y-127548572D01*
X95389818Y-128072381D02*
X95866008Y-128072381D01*
X95866008Y-127072381D01*
X95389818Y-127072381D01*
X94627913Y-127548572D02*
X94961247Y-127548572D01*
X94961247Y-128072381D02*
X94961247Y-127072381D01*
X94485056Y-127072381D01*
X93961247Y-127072381D02*
X93961247Y-127310477D01*
X94199342Y-127215239D02*
X93961247Y-127310477D01*
X93723151Y-127215239D01*
X94104104Y-127500953D02*
X93961247Y-127310477D01*
X93818389Y-127500953D01*
X93199342Y-127072381D02*
X93199342Y-127310477D01*
X93437437Y-127215239D02*
X93199342Y-127310477D01*
X92961247Y-127215239D01*
X93342199Y-127500953D02*
X93199342Y-127310477D01*
X93056485Y-127500953D01*
X156294580Y-128072381D02*
X156627913Y-127596191D01*
X156866008Y-128072381D02*
X156866008Y-127072381D01*
X156485056Y-127072381D01*
X156389818Y-127120001D01*
X156342199Y-127167620D01*
X156294580Y-127262858D01*
X156294580Y-127405715D01*
X156342199Y-127500953D01*
X156389818Y-127548572D01*
X156485056Y-127596191D01*
X156866008Y-127596191D01*
X155866008Y-127548572D02*
X155532675Y-127548572D01*
X155389818Y-128072381D02*
X155866008Y-128072381D01*
X155866008Y-127072381D01*
X155389818Y-127072381D01*
X154627913Y-127548572D02*
X154961247Y-127548572D01*
X154961247Y-128072381D02*
X154961247Y-127072381D01*
X154485056Y-127072381D01*
X153961247Y-127072381D02*
X153961247Y-127310477D01*
X154199342Y-127215239D02*
X153961247Y-127310477D01*
X153723151Y-127215239D01*
X154104104Y-127500953D02*
X153961247Y-127310477D01*
X153818389Y-127500953D01*
X153199342Y-127072381D02*
X153199342Y-127310477D01*
X153437437Y-127215239D02*
X153199342Y-127310477D01*
X152961247Y-127215239D01*
X153342199Y-127500953D02*
X153199342Y-127310477D01*
X153056485Y-127500953D01*
X116277524Y-128061010D02*
X116610857Y-127584820D01*
X116848952Y-128061010D02*
X116848952Y-127061010D01*
X116468000Y-127061010D01*
X116372762Y-127108630D01*
X116325143Y-127156249D01*
X116277524Y-127251487D01*
X116277524Y-127394344D01*
X116325143Y-127489582D01*
X116372762Y-127537201D01*
X116468000Y-127584820D01*
X116848952Y-127584820D01*
X115848952Y-127537201D02*
X115515619Y-127537201D01*
X115372762Y-128061010D02*
X115848952Y-128061010D01*
X115848952Y-127061010D01*
X115372762Y-127061010D01*
X114610857Y-127537201D02*
X114944191Y-127537201D01*
X114944191Y-128061010D02*
X114944191Y-127061010D01*
X114468000Y-127061010D01*
X113944191Y-127061010D02*
X113944191Y-127299106D01*
X114182286Y-127203868D02*
X113944191Y-127299106D01*
X113706095Y-127203868D01*
X114087048Y-127489582D02*
X113944191Y-127299106D01*
X113801333Y-127489582D01*
X113182286Y-127061010D02*
X113182286Y-127299106D01*
X113420381Y-127203868D02*
X113182286Y-127299106D01*
X112944191Y-127203868D01*
X113325143Y-127489582D02*
X113182286Y-127299106D01*
X113039429Y-127489582D01*
X136161962Y-108061009D02*
X136495295Y-107584819D01*
X136733390Y-108061009D02*
X136733390Y-107061009D01*
X136352438Y-107061009D01*
X136257200Y-107108629D01*
X136209581Y-107156248D01*
X136161962Y-107251486D01*
X136161962Y-107394343D01*
X136209581Y-107489581D01*
X136257200Y-107537200D01*
X136352438Y-107584819D01*
X136733390Y-107584819D01*
X135733390Y-107537200D02*
X135400057Y-107537200D01*
X135257200Y-108061009D02*
X135733390Y-108061009D01*
X135733390Y-107061009D01*
X135257200Y-107061009D01*
X134495295Y-107537200D02*
X134828629Y-107537200D01*
X134828629Y-108061009D02*
X134828629Y-107061009D01*
X134352438Y-107061009D01*
X133828629Y-107061009D02*
X133828629Y-107299105D01*
X134066724Y-107203867D02*
X133828629Y-107299105D01*
X133590533Y-107203867D01*
X133971486Y-107489581D02*
X133828629Y-107299105D01*
X133685771Y-107489581D01*
X133066724Y-107061009D02*
X133066724Y-107299105D01*
X133304819Y-107203867D02*
X133066724Y-107299105D01*
X132828629Y-107203867D01*
X133209581Y-107489581D02*
X133066724Y-107299105D01*
X132923867Y-107489581D01*
X96173333Y-108072380D02*
X96506666Y-107596190D01*
X96744761Y-108072380D02*
X96744761Y-107072380D01*
X96363809Y-107072380D01*
X96268571Y-107120000D01*
X96220952Y-107167619D01*
X96173333Y-107262857D01*
X96173333Y-107405714D01*
X96220952Y-107500952D01*
X96268571Y-107548571D01*
X96363809Y-107596190D01*
X96744761Y-107596190D01*
X95744761Y-107548571D02*
X95411428Y-107548571D01*
X95268571Y-108072380D02*
X95744761Y-108072380D01*
X95744761Y-107072380D01*
X95268571Y-107072380D01*
X94506666Y-107548571D02*
X94840000Y-107548571D01*
X94840000Y-108072380D02*
X94840000Y-107072380D01*
X94363809Y-107072380D01*
X93840000Y-107072380D02*
X93840000Y-107310476D01*
X94078095Y-107215238D02*
X93840000Y-107310476D01*
X93601904Y-107215238D01*
X93982857Y-107500952D02*
X93840000Y-107310476D01*
X93697142Y-107500952D01*
X93078095Y-107072380D02*
X93078095Y-107310476D01*
X93316190Y-107215238D02*
X93078095Y-107310476D01*
X92840000Y-107215238D01*
X93220952Y-107500952D02*
X93078095Y-107310476D01*
X92935238Y-107500952D01*
X76173333Y-108072380D02*
X76506666Y-107596190D01*
X76744761Y-108072380D02*
X76744761Y-107072380D01*
X76363809Y-107072380D01*
X76268571Y-107120000D01*
X76220952Y-107167619D01*
X76173333Y-107262857D01*
X76173333Y-107405714D01*
X76220952Y-107500952D01*
X76268571Y-107548571D01*
X76363809Y-107596190D01*
X76744761Y-107596190D01*
X75744761Y-107548571D02*
X75411428Y-107548571D01*
X75268571Y-108072380D02*
X75744761Y-108072380D01*
X75744761Y-107072380D01*
X75268571Y-107072380D01*
X74506666Y-107548571D02*
X74840000Y-107548571D01*
X74840000Y-108072380D02*
X74840000Y-107072380D01*
X74363809Y-107072380D01*
X73840000Y-107072380D02*
X73840000Y-107310476D01*
X74078095Y-107215238D02*
X73840000Y-107310476D01*
X73601904Y-107215238D01*
X73982857Y-107500952D02*
X73840000Y-107310476D01*
X73697142Y-107500952D01*
X73078095Y-107072380D02*
X73078095Y-107310476D01*
X73316190Y-107215238D02*
X73078095Y-107310476D01*
X72840000Y-107215238D01*
X73220952Y-107500952D02*
X73078095Y-107310476D01*
X72935238Y-107500952D01*
X116156277Y-108061009D02*
X116489610Y-107584819D01*
X116727705Y-108061009D02*
X116727705Y-107061009D01*
X116346753Y-107061009D01*
X116251515Y-107108629D01*
X116203896Y-107156248D01*
X116156277Y-107251486D01*
X116156277Y-107394343D01*
X116203896Y-107489581D01*
X116251515Y-107537200D01*
X116346753Y-107584819D01*
X116727705Y-107584819D01*
X115727705Y-107537200D02*
X115394372Y-107537200D01*
X115251515Y-108061009D02*
X115727705Y-108061009D01*
X115727705Y-107061009D01*
X115251515Y-107061009D01*
X114489610Y-107537200D02*
X114822944Y-107537200D01*
X114822944Y-108061009D02*
X114822944Y-107061009D01*
X114346753Y-107061009D01*
X113822944Y-107061009D02*
X113822944Y-107299105D01*
X114061039Y-107203867D02*
X113822944Y-107299105D01*
X113584848Y-107203867D01*
X113965801Y-107489581D02*
X113822944Y-107299105D01*
X113680086Y-107489581D01*
X113061039Y-107061009D02*
X113061039Y-107299105D01*
X113299134Y-107203867D02*
X113061039Y-107299105D01*
X112822944Y-107203867D01*
X113203896Y-107489581D02*
X113061039Y-107299105D01*
X112918182Y-107489581D01*
X156173333Y-108072380D02*
X156506666Y-107596190D01*
X156744761Y-108072380D02*
X156744761Y-107072380D01*
X156363809Y-107072380D01*
X156268571Y-107120000D01*
X156220952Y-107167619D01*
X156173333Y-107262857D01*
X156173333Y-107405714D01*
X156220952Y-107500952D01*
X156268571Y-107548571D01*
X156363809Y-107596190D01*
X156744761Y-107596190D01*
X155744761Y-107548571D02*
X155411428Y-107548571D01*
X155268571Y-108072380D02*
X155744761Y-108072380D01*
X155744761Y-107072380D01*
X155268571Y-107072380D01*
X154506666Y-107548571D02*
X154840000Y-107548571D01*
X154840000Y-108072380D02*
X154840000Y-107072380D01*
X154363809Y-107072380D01*
X153840000Y-107072380D02*
X153840000Y-107310476D01*
X154078095Y-107215238D02*
X153840000Y-107310476D01*
X153601904Y-107215238D01*
X153982857Y-107500952D02*
X153840000Y-107310476D01*
X153697142Y-107500952D01*
X153078095Y-107072380D02*
X153078095Y-107310476D01*
X153316190Y-107215238D02*
X153078095Y-107310476D01*
X152840000Y-107215238D01*
X153220952Y-107500952D02*
X153078095Y-107310476D01*
X152935238Y-107500952D01*
X116156277Y-68061009D02*
X116489610Y-67584819D01*
X116727705Y-68061009D02*
X116727705Y-67061009D01*
X116346753Y-67061009D01*
X116251515Y-67108629D01*
X116203896Y-67156248D01*
X116156277Y-67251486D01*
X116156277Y-67394343D01*
X116203896Y-67489581D01*
X116251515Y-67537200D01*
X116346753Y-67584819D01*
X116727705Y-67584819D01*
X115727705Y-67537200D02*
X115394372Y-67537200D01*
X115251515Y-68061009D02*
X115727705Y-68061009D01*
X115727705Y-67061009D01*
X115251515Y-67061009D01*
X114489610Y-67537200D02*
X114822944Y-67537200D01*
X114822944Y-68061009D02*
X114822944Y-67061009D01*
X114346753Y-67061009D01*
X113822944Y-67061009D02*
X113822944Y-67299105D01*
X114061039Y-67203867D02*
X113822944Y-67299105D01*
X113584848Y-67203867D01*
X113965801Y-67489581D02*
X113822944Y-67299105D01*
X113680086Y-67489581D01*
X113061039Y-67061009D02*
X113061039Y-67299105D01*
X113299134Y-67203867D02*
X113061039Y-67299105D01*
X112822944Y-67203867D01*
X113203896Y-67489581D02*
X113061039Y-67299105D01*
X112918182Y-67489581D01*
X156173333Y-68072380D02*
X156506666Y-67596190D01*
X156744761Y-68072380D02*
X156744761Y-67072380D01*
X156363809Y-67072380D01*
X156268571Y-67120000D01*
X156220952Y-67167619D01*
X156173333Y-67262857D01*
X156173333Y-67405714D01*
X156220952Y-67500952D01*
X156268571Y-67548571D01*
X156363809Y-67596190D01*
X156744761Y-67596190D01*
X155744761Y-67548571D02*
X155411428Y-67548571D01*
X155268571Y-68072380D02*
X155744761Y-68072380D01*
X155744761Y-67072380D01*
X155268571Y-67072380D01*
X154506666Y-67548571D02*
X154840000Y-67548571D01*
X154840000Y-68072380D02*
X154840000Y-67072380D01*
X154363809Y-67072380D01*
X153840000Y-67072380D02*
X153840000Y-67310476D01*
X154078095Y-67215238D02*
X153840000Y-67310476D01*
X153601904Y-67215238D01*
X153982857Y-67500952D02*
X153840000Y-67310476D01*
X153697142Y-67500952D01*
X153078095Y-67072380D02*
X153078095Y-67310476D01*
X153316190Y-67215238D02*
X153078095Y-67310476D01*
X152840000Y-67215238D01*
X153220952Y-67500952D02*
X153078095Y-67310476D01*
X152935238Y-67500952D01*
X136161962Y-68061009D02*
X136495295Y-67584819D01*
X136733390Y-68061009D02*
X136733390Y-67061009D01*
X136352438Y-67061009D01*
X136257200Y-67108629D01*
X136209581Y-67156248D01*
X136161962Y-67251486D01*
X136161962Y-67394343D01*
X136209581Y-67489581D01*
X136257200Y-67537200D01*
X136352438Y-67584819D01*
X136733390Y-67584819D01*
X135733390Y-67537200D02*
X135400057Y-67537200D01*
X135257200Y-68061009D02*
X135733390Y-68061009D01*
X135733390Y-67061009D01*
X135257200Y-67061009D01*
X134495295Y-67537200D02*
X134828629Y-67537200D01*
X134828629Y-68061009D02*
X134828629Y-67061009D01*
X134352438Y-67061009D01*
X133828629Y-67061009D02*
X133828629Y-67299105D01*
X134066724Y-67203867D02*
X133828629Y-67299105D01*
X133590533Y-67203867D01*
X133971486Y-67489581D02*
X133828629Y-67299105D01*
X133685771Y-67489581D01*
X133066724Y-67061009D02*
X133066724Y-67299105D01*
X133304819Y-67203867D02*
X133066724Y-67299105D01*
X132828629Y-67203867D01*
X133209581Y-67489581D02*
X133066724Y-67299105D01*
X132923867Y-67489581D01*
X136173333Y-88072380D02*
X136506666Y-87596190D01*
X136744761Y-88072380D02*
X136744761Y-87072380D01*
X136363809Y-87072380D01*
X136268571Y-87120000D01*
X136220952Y-87167619D01*
X136173333Y-87262857D01*
X136173333Y-87405714D01*
X136220952Y-87500952D01*
X136268571Y-87548571D01*
X136363809Y-87596190D01*
X136744761Y-87596190D01*
X135744761Y-87548571D02*
X135411428Y-87548571D01*
X135268571Y-88072380D02*
X135744761Y-88072380D01*
X135744761Y-87072380D01*
X135268571Y-87072380D01*
X134506666Y-87548571D02*
X134840000Y-87548571D01*
X134840000Y-88072380D02*
X134840000Y-87072380D01*
X134363809Y-87072380D01*
X133840000Y-87072380D02*
X133840000Y-87310476D01*
X134078095Y-87215238D02*
X133840000Y-87310476D01*
X133601904Y-87215238D01*
X133982857Y-87500952D02*
X133840000Y-87310476D01*
X133697142Y-87500952D01*
X133078095Y-87072380D02*
X133078095Y-87310476D01*
X133316190Y-87215238D02*
X133078095Y-87310476D01*
X132840000Y-87215238D01*
X133220952Y-87500952D02*
X133078095Y-87310476D01*
X132935238Y-87500952D01*
X116173333Y-88072380D02*
X116506666Y-87596190D01*
X116744761Y-88072380D02*
X116744761Y-87072380D01*
X116363809Y-87072380D01*
X116268571Y-87120000D01*
X116220952Y-87167619D01*
X116173333Y-87262857D01*
X116173333Y-87405714D01*
X116220952Y-87500952D01*
X116268571Y-87548571D01*
X116363809Y-87596190D01*
X116744761Y-87596190D01*
X115744761Y-87548571D02*
X115411428Y-87548571D01*
X115268571Y-88072380D02*
X115744761Y-88072380D01*
X115744761Y-87072380D01*
X115268571Y-87072380D01*
X114506666Y-87548571D02*
X114840000Y-87548571D01*
X114840000Y-88072380D02*
X114840000Y-87072380D01*
X114363809Y-87072380D01*
X113840000Y-87072380D02*
X113840000Y-87310476D01*
X114078095Y-87215238D02*
X113840000Y-87310476D01*
X113601904Y-87215238D01*
X113982857Y-87500952D02*
X113840000Y-87310476D01*
X113697142Y-87500952D01*
X113078095Y-87072380D02*
X113078095Y-87310476D01*
X113316190Y-87215238D02*
X113078095Y-87310476D01*
X112840000Y-87215238D01*
X113220952Y-87500952D02*
X113078095Y-87310476D01*
X112935238Y-87500952D01*
X76173333Y-68072380D02*
X76506666Y-67596190D01*
X76744761Y-68072380D02*
X76744761Y-67072380D01*
X76363809Y-67072380D01*
X76268571Y-67120000D01*
X76220952Y-67167619D01*
X76173333Y-67262857D01*
X76173333Y-67405714D01*
X76220952Y-67500952D01*
X76268571Y-67548571D01*
X76363809Y-67596190D01*
X76744761Y-67596190D01*
X75744761Y-67548571D02*
X75411428Y-67548571D01*
X75268571Y-68072380D02*
X75744761Y-68072380D01*
X75744761Y-67072380D01*
X75268571Y-67072380D01*
X74506666Y-67548571D02*
X74840000Y-67548571D01*
X74840000Y-68072380D02*
X74840000Y-67072380D01*
X74363809Y-67072380D01*
X73840000Y-67072380D02*
X73840000Y-67310476D01*
X74078095Y-67215238D02*
X73840000Y-67310476D01*
X73601904Y-67215238D01*
X73982857Y-67500952D02*
X73840000Y-67310476D01*
X73697142Y-67500952D01*
X73078095Y-67072380D02*
X73078095Y-67310476D01*
X73316190Y-67215238D02*
X73078095Y-67310476D01*
X72840000Y-67215238D01*
X73220952Y-67500952D02*
X73078095Y-67310476D01*
X72935238Y-67500952D01*
X96173333Y-88072380D02*
X96506666Y-87596190D01*
X96744761Y-88072380D02*
X96744761Y-87072380D01*
X96363809Y-87072380D01*
X96268571Y-87120000D01*
X96220952Y-87167619D01*
X96173333Y-87262857D01*
X96173333Y-87405714D01*
X96220952Y-87500952D01*
X96268571Y-87548571D01*
X96363809Y-87596190D01*
X96744761Y-87596190D01*
X95744761Y-87548571D02*
X95411428Y-87548571D01*
X95268571Y-88072380D02*
X95744761Y-88072380D01*
X95744761Y-87072380D01*
X95268571Y-87072380D01*
X94506666Y-87548571D02*
X94840000Y-87548571D01*
X94840000Y-88072380D02*
X94840000Y-87072380D01*
X94363809Y-87072380D01*
X93840000Y-87072380D02*
X93840000Y-87310476D01*
X94078095Y-87215238D02*
X93840000Y-87310476D01*
X93601904Y-87215238D01*
X93982857Y-87500952D02*
X93840000Y-87310476D01*
X93697142Y-87500952D01*
X93078095Y-87072380D02*
X93078095Y-87310476D01*
X93316190Y-87215238D02*
X93078095Y-87310476D01*
X92840000Y-87215238D01*
X93220952Y-87500952D02*
X93078095Y-87310476D01*
X92935238Y-87500952D01*
X156173333Y-88072380D02*
X156506666Y-87596190D01*
X156744761Y-88072380D02*
X156744761Y-87072380D01*
X156363809Y-87072380D01*
X156268571Y-87120000D01*
X156220952Y-87167619D01*
X156173333Y-87262857D01*
X156173333Y-87405714D01*
X156220952Y-87500952D01*
X156268571Y-87548571D01*
X156363809Y-87596190D01*
X156744761Y-87596190D01*
X155744761Y-87548571D02*
X155411428Y-87548571D01*
X155268571Y-88072380D02*
X155744761Y-88072380D01*
X155744761Y-87072380D01*
X155268571Y-87072380D01*
X154506666Y-87548571D02*
X154840000Y-87548571D01*
X154840000Y-88072380D02*
X154840000Y-87072380D01*
X154363809Y-87072380D01*
X153840000Y-87072380D02*
X153840000Y-87310476D01*
X154078095Y-87215238D02*
X153840000Y-87310476D01*
X153601904Y-87215238D01*
X153982857Y-87500952D02*
X153840000Y-87310476D01*
X153697142Y-87500952D01*
X153078095Y-87072380D02*
X153078095Y-87310476D01*
X153316190Y-87215238D02*
X153078095Y-87310476D01*
X152840000Y-87215238D01*
X153220952Y-87500952D02*
X153078095Y-87310476D01*
X152935238Y-87500952D01*
X96173333Y-68072380D02*
X96506666Y-67596190D01*
X96744761Y-68072380D02*
X96744761Y-67072380D01*
X96363809Y-67072380D01*
X96268571Y-67120000D01*
X96220952Y-67167619D01*
X96173333Y-67262857D01*
X96173333Y-67405714D01*
X96220952Y-67500952D01*
X96268571Y-67548571D01*
X96363809Y-67596190D01*
X96744761Y-67596190D01*
X95744761Y-67548571D02*
X95411428Y-67548571D01*
X95268571Y-68072380D02*
X95744761Y-68072380D01*
X95744761Y-67072380D01*
X95268571Y-67072380D01*
X94506666Y-67548571D02*
X94840000Y-67548571D01*
X94840000Y-68072380D02*
X94840000Y-67072380D01*
X94363809Y-67072380D01*
X93840000Y-67072380D02*
X93840000Y-67310476D01*
X94078095Y-67215238D02*
X93840000Y-67310476D01*
X93601904Y-67215238D01*
X93982857Y-67500952D02*
X93840000Y-67310476D01*
X93697142Y-67500952D01*
X93078095Y-67072380D02*
X93078095Y-67310476D01*
X93316190Y-67215238D02*
X93078095Y-67310476D01*
X92840000Y-67215238D01*
X93220952Y-67500952D02*
X93078095Y-67310476D01*
X92935238Y-67500952D01*
X76052086Y-88072379D02*
X76385419Y-87596189D01*
X76623514Y-88072379D02*
X76623514Y-87072379D01*
X76242562Y-87072379D01*
X76147324Y-87119999D01*
X76099705Y-87167618D01*
X76052086Y-87262856D01*
X76052086Y-87405713D01*
X76099705Y-87500951D01*
X76147324Y-87548570D01*
X76242562Y-87596189D01*
X76623514Y-87596189D01*
X75623514Y-87548570D02*
X75290181Y-87548570D01*
X75147324Y-88072379D02*
X75623514Y-88072379D01*
X75623514Y-87072379D01*
X75147324Y-87072379D01*
X74385419Y-87548570D02*
X74718753Y-87548570D01*
X74718753Y-88072379D02*
X74718753Y-87072379D01*
X74242562Y-87072379D01*
X73718753Y-87072379D02*
X73718753Y-87310475D01*
X73956848Y-87215237D02*
X73718753Y-87310475D01*
X73480657Y-87215237D01*
X73861610Y-87500951D02*
X73718753Y-87310475D01*
X73575895Y-87500951D01*
X72956848Y-87072379D02*
X72956848Y-87310475D01*
X73194943Y-87215237D02*
X72956848Y-87310475D01*
X72718753Y-87215237D01*
X73099705Y-87500951D02*
X72956848Y-87310475D01*
X72813991Y-87500951D01*
D12*
X72354762Y-156000000D02*
G75*
G03*
X72354762Y-156000000I-1450000J0D01*
G01*
X77234762Y-157210000D02*
X77234762Y-157330000D01*
X77234762Y-157330000D02*
X74574762Y-157330000D01*
X74574762Y-157210000D02*
X74574762Y-157330000D01*
X74574762Y-154670000D02*
X74574762Y-156000000D01*
X75904762Y-154670000D02*
X74574762Y-154670000D01*
X67330000Y-136195000D02*
X64670000Y-136195000D01*
X67330000Y-133595000D02*
X66000000Y-133595000D01*
X67330000Y-134925000D02*
X67330000Y-133595000D01*
X64670000Y-136195000D02*
X64670000Y-146415000D01*
X67330000Y-136195000D02*
X67330000Y-146415000D01*
X67330000Y-146415000D02*
X64670000Y-146415000D01*
X64670000Y-113585000D02*
X67330000Y-113585000D01*
X64670000Y-123805000D02*
X64670000Y-113585000D01*
X67330000Y-123805000D02*
X67330000Y-113585000D01*
X64670000Y-125075000D02*
X64670000Y-126405000D01*
X64670000Y-126405000D02*
X66000000Y-126405000D01*
X64670000Y-123805000D02*
X67330000Y-123805000D01*
X64670000Y-103805000D02*
X67330000Y-103805000D01*
X64670000Y-106405000D02*
X66000000Y-106405000D01*
X64670000Y-105075000D02*
X64670000Y-106405000D01*
X67330000Y-103805000D02*
X67330000Y-93585000D01*
X64670000Y-103805000D02*
X64670000Y-93585000D01*
X64670000Y-93585000D02*
X67330000Y-93585000D01*
X67330000Y-76195000D02*
X64670000Y-76195000D01*
X67330000Y-73595000D02*
X66000000Y-73595000D01*
X67330000Y-74925000D02*
X67330000Y-73595000D01*
X64670000Y-76195000D02*
X64670000Y-86415000D01*
X67330000Y-76195000D02*
X67330000Y-86415000D01*
X67330000Y-86415000D02*
X64670000Y-86415000D01*
X64670000Y-65075000D02*
X64670000Y-66405000D01*
X64670000Y-63805000D02*
X67330000Y-63805000D01*
X64670000Y-53585000D02*
X67330000Y-53585000D01*
X64670000Y-63805000D02*
X64670000Y-53585000D01*
X64670000Y-66405000D02*
X66000000Y-66405000D01*
X67330000Y-63805000D02*
X67330000Y-53585000D01*
X153121247Y-140000001D02*
G75*
G03*
X153121247Y-140000001I-8000000J0D01*
G01*
X153109876Y-119988630D02*
G75*
G03*
X153109876Y-119988630I-8000000J0D01*
G01*
X133121247Y-140000001D02*
G75*
G03*
X133121247Y-140000001I-8000000J0D01*
G01*
X93121247Y-120000001D02*
G75*
G03*
X93121247Y-120000001I-8000000J0D01*
G01*
X93000000Y-140000000D02*
G75*
G03*
X93000000Y-140000000I-8000000J0D01*
G01*
X113121247Y-140000001D02*
G75*
G03*
X113121247Y-140000001I-8000000J0D01*
G01*
X173121247Y-140000001D02*
G75*
G03*
X173121247Y-140000001I-8000000J0D01*
G01*
X113121247Y-120000001D02*
G75*
G03*
X113121247Y-120000001I-8000000J0D01*
G01*
X173121247Y-120000001D02*
G75*
G03*
X173121247Y-120000001I-8000000J0D01*
G01*
X133104191Y-119988630D02*
G75*
G03*
X133104191Y-119988630I-8000000J0D01*
G01*
X152988629Y-99988629D02*
G75*
G03*
X152988629Y-99988629I-8000000J0D01*
G01*
X113000000Y-100000000D02*
G75*
G03*
X113000000Y-100000000I-8000000J0D01*
G01*
X93000000Y-100000000D02*
G75*
G03*
X93000000Y-100000000I-8000000J0D01*
G01*
X132982944Y-99988629D02*
G75*
G03*
X132982944Y-99988629I-8000000J0D01*
G01*
X173000000Y-100000000D02*
G75*
G03*
X173000000Y-100000000I-8000000J0D01*
G01*
X132982944Y-59988629D02*
G75*
G03*
X132982944Y-59988629I-8000000J0D01*
G01*
X173000000Y-60000000D02*
G75*
G03*
X173000000Y-60000000I-8000000J0D01*
G01*
X152988629Y-59988629D02*
G75*
G03*
X152988629Y-59988629I-8000000J0D01*
G01*
X153000000Y-80000000D02*
G75*
G03*
X153000000Y-80000000I-8000000J0D01*
G01*
X133000000Y-80000000D02*
G75*
G03*
X133000000Y-80000000I-8000000J0D01*
G01*
X93000000Y-60000000D02*
G75*
G03*
X93000000Y-60000000I-8000000J0D01*
G01*
X113000000Y-80000000D02*
G75*
G03*
X113000000Y-80000000I-8000000J0D01*
G01*
X173000000Y-80000000D02*
G75*
G03*
X173000000Y-80000000I-8000000J0D01*
G01*
X113000000Y-60000000D02*
G75*
G03*
X113000000Y-60000000I-8000000J0D01*
G01*
X92878753Y-79999999D02*
G75*
G03*
X92878753Y-79999999I-8000000J0D01*
G01*
%TD*%
M02*
