%TF.GenerationSoftware,KiCad,Pcbnew,(6.0.4)*%
%TF.CreationDate,2022-05-01T19:30:29-04:00*%
%TF.ProjectId,ultrasonic,756c7472-6173-46f6-9e69-632e6b696361,rev?*%
%TF.SameCoordinates,Original*%
%TF.FileFunction,Soldermask,Top*%
%TF.FilePolarity,Negative*%
%FSLAX46Y46*%
G04 Gerber Fmt 4.6, Leading zero omitted, Abs format (unit mm)*
G04 Created by KiCad (PCBNEW (6.0.4)) date 2022-05-01 19:30:29*
%MOMM*%
%LPD*%
G01*
G04 APERTURE LIST*
G04 Aperture macros list*
%AMRoundRect*
0 Rectangle with rounded corners*
0 $1 Rounding radius*
0 $2 $3 $4 $5 $6 $7 $8 $9 X,Y pos of 4 corners*
0 Add a 4 corners polygon primitive as box body*
4,1,4,$2,$3,$4,$5,$6,$7,$8,$9,$2,$3,0*
0 Add four circle primitives for the rounded corners*
1,1,$1+$1,$2,$3*
1,1,$1+$1,$4,$5*
1,1,$1+$1,$6,$7*
1,1,$1+$1,$8,$9*
0 Add four rect primitives between the rounded corners*
20,1,$1+$1,$2,$3,$4,$5,0*
20,1,$1+$1,$4,$5,$6,$7,0*
20,1,$1+$1,$6,$7,$8,$9,0*
20,1,$1+$1,$8,$9,$2,$3,0*%
G04 Aperture macros list end*
%ADD10C,3.200000*%
%ADD11R,1.700000X1.700000*%
%ADD12O,1.700000X1.700000*%
%ADD13C,2.500000*%
%ADD14C,2.000000*%
%ADD15RoundRect,0.042000X-0.748000X-0.258000X0.748000X-0.258000X0.748000X0.258000X-0.748000X0.258000X0*%
%ADD16RoundRect,0.042000X-0.258000X0.748000X-0.258000X-0.748000X0.258000X-0.748000X0.258000X0.748000X0*%
G04 APERTURE END LIST*
D10*
%TO.C,*%
X65000000Y-45000000D03*
%TD*%
%TO.C,*%
X175000000Y-45000000D03*
%TD*%
%TO.C,*%
X175000000Y-155000000D03*
%TD*%
%TO.C,REF\u002A\u002A*%
X65000000Y-155000000D03*
%TD*%
D11*
%TO.C,REF\u002A\u002A*%
X79500000Y-45000000D03*
D12*
X82040000Y-45000000D03*
X84580000Y-45000000D03*
%TD*%
D13*
%TO.C,REF\u002A\u002A*%
X70904762Y-156000000D03*
%TD*%
D11*
%TO.C,REF\u002A\u002A*%
X75904762Y-156000000D03*
%TD*%
D12*
%TO.C,REF\u002A\u002A*%
X66000000Y-145085000D03*
X66000000Y-142545000D03*
X66000000Y-140005000D03*
X66000000Y-137465000D03*
D11*
X66000000Y-134925000D03*
%TD*%
%TO.C,REF\u002A\u002A*%
X66000000Y-125075000D03*
D12*
X66000000Y-122535000D03*
X66000000Y-119995000D03*
X66000000Y-117455000D03*
X66000000Y-114915000D03*
%TD*%
%TO.C,REF\u002A\u002A*%
X66000000Y-94915000D03*
X66000000Y-97455000D03*
X66000000Y-99995000D03*
X66000000Y-102535000D03*
D11*
X66000000Y-105075000D03*
%TD*%
D12*
%TO.C,REF\u002A\u002A*%
X66000000Y-85085000D03*
X66000000Y-82545000D03*
X66000000Y-80005000D03*
X66000000Y-77465000D03*
D11*
X66000000Y-74925000D03*
%TD*%
D12*
%TO.C,REF\u002A\u002A*%
X66000000Y-54915000D03*
X66000000Y-57455000D03*
X66000000Y-59995000D03*
X66000000Y-62535000D03*
D11*
X66000000Y-65075000D03*
%TD*%
D14*
%TO.C,REF\u002A\u002A*%
X145121247Y-135000001D03*
X145121247Y-145000001D03*
%TD*%
%TO.C,REF\u002A\u002A*%
X145109876Y-124988630D03*
X145109876Y-114988630D03*
%TD*%
%TO.C,REF\u002A\u002A*%
X125121247Y-145000001D03*
X125121247Y-135000001D03*
%TD*%
%TO.C,REF\u002A\u002A*%
X85121247Y-125000001D03*
X85121247Y-115000001D03*
%TD*%
%TO.C,REF\u002A\u002A*%
X85000000Y-135000000D03*
X85000000Y-145000000D03*
%TD*%
%TO.C,REF\u002A\u002A*%
X105121247Y-135000001D03*
X105121247Y-145000001D03*
%TD*%
%TO.C,REF\u002A\u002A*%
X165121247Y-135000001D03*
X165121247Y-145000001D03*
%TD*%
%TO.C,REF\u002A\u002A*%
X105121247Y-125000001D03*
X105121247Y-115000001D03*
%TD*%
D15*
%TO.C,REF\u002A\u002A*%
X132451247Y-128095001D03*
X132451247Y-129365001D03*
X132451247Y-130635001D03*
X132451247Y-131905001D03*
X137791247Y-131905001D03*
X137791247Y-130635001D03*
X137791247Y-129365001D03*
X137791247Y-128095001D03*
%TD*%
%TO.C,REF\u002A\u002A*%
X152451247Y-128095001D03*
X152451247Y-129365001D03*
X152451247Y-130635001D03*
X152451247Y-131905001D03*
X157791247Y-131905001D03*
X157791247Y-130635001D03*
X157791247Y-129365001D03*
X157791247Y-128095001D03*
%TD*%
%TO.C,REF\u002A\u002A*%
X72451247Y-128056127D03*
X72451247Y-129326127D03*
X72451247Y-130596127D03*
X72451247Y-131866127D03*
X77791247Y-131866127D03*
X77791247Y-130596127D03*
X77791247Y-129326127D03*
X77791247Y-128056127D03*
%TD*%
%TO.C,REF\u002A\u002A*%
X92424833Y-128056127D03*
X92424833Y-129326127D03*
X92424833Y-130596127D03*
X92424833Y-131866127D03*
X97764833Y-131866127D03*
X97764833Y-130596127D03*
X97764833Y-129326127D03*
X97764833Y-128056127D03*
%TD*%
%TO.C,REF\u002A\u002A*%
X112451247Y-128095001D03*
X112451247Y-129365001D03*
X112451247Y-130635001D03*
X112451247Y-131905001D03*
X117791247Y-131905001D03*
X117791247Y-130635001D03*
X117791247Y-129365001D03*
X117791247Y-128095001D03*
%TD*%
D14*
%TO.C,REF\u002A\u002A*%
X165121247Y-125000001D03*
X165121247Y-115000001D03*
%TD*%
%TO.C,REF\u002A\u002A*%
X125104191Y-114988630D03*
X125104191Y-124988630D03*
%TD*%
D15*
%TO.C,REF\u002A\u002A*%
X72330000Y-68056126D03*
X72330000Y-69326126D03*
X72330000Y-70596126D03*
X72330000Y-71866126D03*
X77670000Y-71866126D03*
X77670000Y-70596126D03*
X77670000Y-69326126D03*
X77670000Y-68056126D03*
%TD*%
D16*
%TO.C,REF\u002A\u002A*%
X156905000Y-92330000D03*
X155635000Y-92330000D03*
X154365000Y-92330000D03*
X153095000Y-92330000D03*
X153095000Y-97670000D03*
X154365000Y-97670000D03*
X155635000Y-97670000D03*
X156905000Y-97670000D03*
%TD*%
%TO.C,REF\u002A\u002A*%
X136905000Y-92330000D03*
X135635000Y-92330000D03*
X134365000Y-92330000D03*
X133095000Y-92330000D03*
X133095000Y-97670000D03*
X134365000Y-97670000D03*
X135635000Y-97670000D03*
X136905000Y-97670000D03*
%TD*%
%TO.C,REF\u002A\u002A*%
X96905000Y-97670000D03*
X95635000Y-97670000D03*
X94365000Y-97670000D03*
X93095000Y-97670000D03*
X93095000Y-92330000D03*
X94365000Y-92330000D03*
X95635000Y-92330000D03*
X96905000Y-92330000D03*
%TD*%
D15*
%TO.C,REF\u002A\u002A*%
X157670000Y-68095000D03*
X157670000Y-69365000D03*
X157670000Y-70635000D03*
X157670000Y-71905000D03*
X152330000Y-71905000D03*
X152330000Y-70635000D03*
X152330000Y-69365000D03*
X152330000Y-68095000D03*
%TD*%
%TO.C,REF\u002A\u002A*%
X137670000Y-68095000D03*
X137670000Y-69365000D03*
X137670000Y-70635000D03*
X137670000Y-71905000D03*
X132330000Y-71905000D03*
X132330000Y-70635000D03*
X132330000Y-69365000D03*
X132330000Y-68095000D03*
%TD*%
%TO.C,REF\u002A\u002A*%
X117670000Y-68095000D03*
X117670000Y-69365000D03*
X117670000Y-70635000D03*
X117670000Y-71905000D03*
X112330000Y-71905000D03*
X112330000Y-70635000D03*
X112330000Y-69365000D03*
X112330000Y-68095000D03*
%TD*%
%TO.C,REF\u002A\u002A*%
X97643586Y-68056126D03*
X97643586Y-69326126D03*
X97643586Y-70596126D03*
X97643586Y-71866126D03*
X92303586Y-71866126D03*
X92303586Y-70596126D03*
X92303586Y-69326126D03*
X92303586Y-68056126D03*
%TD*%
D14*
%TO.C,REF\u002A\u002A*%
X144988629Y-94988629D03*
X144988629Y-104988629D03*
%TD*%
%TO.C,REF\u002A\u002A*%
X105000000Y-95000000D03*
X105000000Y-105000000D03*
%TD*%
%TO.C,REF\u002A\u002A*%
X85000000Y-95000000D03*
X85000000Y-105000000D03*
%TD*%
%TO.C,REF\u002A\u002A*%
X124982944Y-104988629D03*
X124982944Y-94988629D03*
%TD*%
%TO.C,REF\u002A\u002A*%
X165000000Y-95000000D03*
X165000000Y-105000000D03*
%TD*%
%TO.C,REF\u002A\u002A*%
X124982944Y-54988629D03*
X124982944Y-64988629D03*
%TD*%
%TO.C,REF\u002A\u002A*%
X165000000Y-65000000D03*
X165000000Y-55000000D03*
%TD*%
%TO.C,REF\u002A\u002A*%
X144988629Y-64988629D03*
X144988629Y-54988629D03*
%TD*%
%TO.C,REF\u002A\u002A*%
X145000000Y-85000000D03*
X145000000Y-75000000D03*
%TD*%
%TO.C,REF\u002A\u002A*%
X125000000Y-75000000D03*
X125000000Y-85000000D03*
%TD*%
%TO.C,REF\u002A\u002A*%
X85000000Y-65000000D03*
X85000000Y-55000000D03*
%TD*%
%TO.C,REF\u002A\u002A*%
X105000000Y-85000000D03*
X105000000Y-75000000D03*
%TD*%
%TO.C,REF\u002A\u002A*%
X165000000Y-85000000D03*
X165000000Y-75000000D03*
%TD*%
%TO.C,REF\u002A\u002A*%
X105000000Y-65000000D03*
X105000000Y-55000000D03*
%TD*%
%TO.C,REF\u002A\u002A*%
X84878753Y-84999999D03*
X84878753Y-74999999D03*
%TD*%
M02*
