%TF.GenerationSoftware,KiCad,Pcbnew,(6.0.4)*%
%TF.CreationDate,2022-05-01T19:30:29-04:00*%
%TF.ProjectId,ultrasonic,756c7472-6173-46f6-9e69-632e6b696361,rev?*%
%TF.SameCoordinates,Original*%
%TF.FileFunction,Copper,L1,Top*%
%TF.FilePolarity,Positive*%
%FSLAX46Y46*%
G04 Gerber Fmt 4.6, Leading zero omitted, Abs format (unit mm)*
G04 Created by KiCad (PCBNEW (6.0.4)) date 2022-05-01 19:30:29*
%MOMM*%
%LPD*%
G01*
G04 APERTURE LIST*
G04 Aperture macros list*
%AMRoundRect*
0 Rectangle with rounded corners*
0 $1 Rounding radius*
0 $2 $3 $4 $5 $6 $7 $8 $9 X,Y pos of 4 corners*
0 Add a 4 corners polygon primitive as box body*
4,1,4,$2,$3,$4,$5,$6,$7,$8,$9,$2,$3,0*
0 Add four circle primitives for the rounded corners*
1,1,$1+$1,$2,$3*
1,1,$1+$1,$4,$5*
1,1,$1+$1,$6,$7*
1,1,$1+$1,$8,$9*
0 Add four rect primitives between the rounded corners*
20,1,$1+$1,$2,$3,$4,$5,0*
20,1,$1+$1,$4,$5,$6,$7,0*
20,1,$1+$1,$6,$7,$8,$9,0*
20,1,$1+$1,$8,$9,$2,$3,0*%
G04 Aperture macros list end*
%TA.AperFunction,ComponentPad*%
%ADD10R,1.700000X1.700000*%
%TD*%
%TA.AperFunction,ComponentPad*%
%ADD11O,1.700000X1.700000*%
%TD*%
%TA.AperFunction,ComponentPad*%
%ADD12C,2.500000*%
%TD*%
%TA.AperFunction,ComponentPad*%
%ADD13C,2.000000*%
%TD*%
%TA.AperFunction,SMDPad,CuDef*%
%ADD14RoundRect,0.042000X-0.748000X-0.258000X0.748000X-0.258000X0.748000X0.258000X-0.748000X0.258000X0*%
%TD*%
%TA.AperFunction,SMDPad,CuDef*%
%ADD15RoundRect,0.042000X-0.258000X0.748000X-0.258000X-0.748000X0.258000X-0.748000X0.258000X0.748000X0*%
%TD*%
%TA.AperFunction,ViaPad*%
%ADD16C,0.800000*%
%TD*%
%TA.AperFunction,Conductor*%
%ADD17C,0.250000*%
%TD*%
%TA.AperFunction,Conductor*%
%ADD18C,0.400000*%
%TD*%
G04 APERTURE END LIST*
D10*
%TO.P,REF\u002A\u002A,1*%
%TO.N,N/C*%
X79500000Y-45000000D03*
D11*
%TO.P,REF\u002A\u002A,2*%
X82040000Y-45000000D03*
%TO.P,REF\u002A\u002A,3*%
X84580000Y-45000000D03*
%TD*%
D12*
%TO.P,REF\u002A\u002A,1*%
%TO.N,N/C*%
X70904762Y-156000000D03*
%TD*%
D10*
%TO.P,REF\u002A\u002A,1*%
%TO.N,N/C*%
X75904762Y-156000000D03*
%TD*%
D11*
%TO.P,REF\u002A\u002A,5*%
%TO.N,N/C*%
X66000000Y-145085000D03*
%TO.P,REF\u002A\u002A,4*%
X66000000Y-142545000D03*
%TO.P,REF\u002A\u002A,3*%
X66000000Y-140005000D03*
%TO.P,REF\u002A\u002A,2*%
X66000000Y-137465000D03*
D10*
%TO.P,REF\u002A\u002A,1*%
X66000000Y-134925000D03*
%TD*%
%TO.P,REF\u002A\u002A,1*%
%TO.N,N/C*%
X66000000Y-125075000D03*
D11*
%TO.P,REF\u002A\u002A,2*%
X66000000Y-122535000D03*
%TO.P,REF\u002A\u002A,3*%
X66000000Y-119995000D03*
%TO.P,REF\u002A\u002A,4*%
X66000000Y-117455000D03*
%TO.P,REF\u002A\u002A,5*%
X66000000Y-114915000D03*
%TD*%
%TO.P,REF\u002A\u002A,5*%
%TO.N,N/C*%
X66000000Y-94915000D03*
%TO.P,REF\u002A\u002A,4*%
X66000000Y-97455000D03*
%TO.P,REF\u002A\u002A,3*%
X66000000Y-99995000D03*
%TO.P,REF\u002A\u002A,2*%
X66000000Y-102535000D03*
D10*
%TO.P,REF\u002A\u002A,1*%
X66000000Y-105075000D03*
%TD*%
D11*
%TO.P,REF\u002A\u002A,5*%
%TO.N,N/C*%
X66000000Y-85085000D03*
%TO.P,REF\u002A\u002A,4*%
X66000000Y-82545000D03*
%TO.P,REF\u002A\u002A,3*%
X66000000Y-80005000D03*
%TO.P,REF\u002A\u002A,2*%
X66000000Y-77465000D03*
D10*
%TO.P,REF\u002A\u002A,1*%
X66000000Y-74925000D03*
%TD*%
D11*
%TO.P,REF\u002A\u002A,5*%
%TO.N,N/C*%
X66000000Y-54915000D03*
%TO.P,REF\u002A\u002A,4*%
X66000000Y-57455000D03*
%TO.P,REF\u002A\u002A,3*%
X66000000Y-59995000D03*
%TO.P,REF\u002A\u002A,2*%
X66000000Y-62535000D03*
D10*
%TO.P,REF\u002A\u002A,1*%
X66000000Y-65075000D03*
%TD*%
D13*
%TO.P,REF\u002A\u002A,1*%
%TO.N,N/C*%
X145121247Y-135000001D03*
%TO.P,REF\u002A\u002A,2*%
X145121247Y-145000001D03*
%TD*%
%TO.P,REF\u002A\u002A,2*%
%TO.N,N/C*%
X145109876Y-124988630D03*
%TO.P,REF\u002A\u002A,1*%
X145109876Y-114988630D03*
%TD*%
%TO.P,REF\u002A\u002A,2*%
%TO.N,N/C*%
X125121247Y-145000001D03*
%TO.P,REF\u002A\u002A,1*%
X125121247Y-135000001D03*
%TD*%
%TO.P,REF\u002A\u002A,2*%
%TO.N,N/C*%
X85121247Y-125000001D03*
%TO.P,REF\u002A\u002A,1*%
X85121247Y-115000001D03*
%TD*%
%TO.P,REF\u002A\u002A,1*%
%TO.N,N/C*%
X85000000Y-135000000D03*
%TO.P,REF\u002A\u002A,2*%
X85000000Y-145000000D03*
%TD*%
%TO.P,REF\u002A\u002A,1*%
%TO.N,N/C*%
X105121247Y-135000001D03*
%TO.P,REF\u002A\u002A,2*%
X105121247Y-145000001D03*
%TD*%
%TO.P,REF\u002A\u002A,1*%
%TO.N,N/C*%
X165121247Y-135000001D03*
%TO.P,REF\u002A\u002A,2*%
X165121247Y-145000001D03*
%TD*%
%TO.P,REF\u002A\u002A,2*%
%TO.N,N/C*%
X105121247Y-125000001D03*
%TO.P,REF\u002A\u002A,1*%
X105121247Y-115000001D03*
%TD*%
D14*
%TO.P,REF\u002A\u002A,1*%
%TO.N,N/C*%
X132451247Y-128095001D03*
%TO.P,REF\u002A\u002A,2*%
X132451247Y-129365001D03*
%TO.P,REF\u002A\u002A,3*%
X132451247Y-130635001D03*
%TO.P,REF\u002A\u002A,4*%
X132451247Y-131905001D03*
%TO.P,REF\u002A\u002A,5*%
X137791247Y-131905001D03*
%TO.P,REF\u002A\u002A,6*%
X137791247Y-130635001D03*
%TO.P,REF\u002A\u002A,7*%
X137791247Y-129365001D03*
%TO.P,REF\u002A\u002A,8*%
X137791247Y-128095001D03*
%TD*%
%TO.P,REF\u002A\u002A,1*%
%TO.N,N/C*%
X152451247Y-128095001D03*
%TO.P,REF\u002A\u002A,2*%
X152451247Y-129365001D03*
%TO.P,REF\u002A\u002A,3*%
X152451247Y-130635001D03*
%TO.P,REF\u002A\u002A,4*%
X152451247Y-131905001D03*
%TO.P,REF\u002A\u002A,5*%
X157791247Y-131905001D03*
%TO.P,REF\u002A\u002A,6*%
X157791247Y-130635001D03*
%TO.P,REF\u002A\u002A,7*%
X157791247Y-129365001D03*
%TO.P,REF\u002A\u002A,8*%
X157791247Y-128095001D03*
%TD*%
%TO.P,REF\u002A\u002A,1*%
%TO.N,N/C*%
X72451247Y-128056127D03*
%TO.P,REF\u002A\u002A,2*%
X72451247Y-129326127D03*
%TO.P,REF\u002A\u002A,3*%
X72451247Y-130596127D03*
%TO.P,REF\u002A\u002A,4*%
X72451247Y-131866127D03*
%TO.P,REF\u002A\u002A,5*%
X77791247Y-131866127D03*
%TO.P,REF\u002A\u002A,6*%
X77791247Y-130596127D03*
%TO.P,REF\u002A\u002A,7*%
X77791247Y-129326127D03*
%TO.P,REF\u002A\u002A,8*%
X77791247Y-128056127D03*
%TD*%
%TO.P,REF\u002A\u002A,1*%
%TO.N,N/C*%
X92424833Y-128056127D03*
%TO.P,REF\u002A\u002A,2*%
X92424833Y-129326127D03*
%TO.P,REF\u002A\u002A,3*%
X92424833Y-130596127D03*
%TO.P,REF\u002A\u002A,4*%
X92424833Y-131866127D03*
%TO.P,REF\u002A\u002A,5*%
X97764833Y-131866127D03*
%TO.P,REF\u002A\u002A,6*%
X97764833Y-130596127D03*
%TO.P,REF\u002A\u002A,7*%
X97764833Y-129326127D03*
%TO.P,REF\u002A\u002A,8*%
X97764833Y-128056127D03*
%TD*%
%TO.P,REF\u002A\u002A,1*%
%TO.N,N/C*%
X112451247Y-128095001D03*
%TO.P,REF\u002A\u002A,2*%
X112451247Y-129365001D03*
%TO.P,REF\u002A\u002A,3*%
X112451247Y-130635001D03*
%TO.P,REF\u002A\u002A,4*%
X112451247Y-131905001D03*
%TO.P,REF\u002A\u002A,5*%
X117791247Y-131905001D03*
%TO.P,REF\u002A\u002A,6*%
X117791247Y-130635001D03*
%TO.P,REF\u002A\u002A,7*%
X117791247Y-129365001D03*
%TO.P,REF\u002A\u002A,8*%
X117791247Y-128095001D03*
%TD*%
D13*
%TO.P,REF\u002A\u002A,2*%
%TO.N,N/C*%
X165121247Y-125000001D03*
%TO.P,REF\u002A\u002A,1*%
X165121247Y-115000001D03*
%TD*%
%TO.P,REF\u002A\u002A,1*%
%TO.N,N/C*%
X125104191Y-114988630D03*
%TO.P,REF\u002A\u002A,2*%
X125104191Y-124988630D03*
%TD*%
D14*
%TO.P,REF\u002A\u002A,1*%
%TO.N,N/C*%
X72330000Y-68056126D03*
%TO.P,REF\u002A\u002A,2*%
X72330000Y-69326126D03*
%TO.P,REF\u002A\u002A,3*%
X72330000Y-70596126D03*
%TO.P,REF\u002A\u002A,4*%
X72330000Y-71866126D03*
%TO.P,REF\u002A\u002A,5*%
X77670000Y-71866126D03*
%TO.P,REF\u002A\u002A,6*%
X77670000Y-70596126D03*
%TO.P,REF\u002A\u002A,7*%
X77670000Y-69326126D03*
%TO.P,REF\u002A\u002A,8*%
X77670000Y-68056126D03*
%TD*%
D15*
%TO.P,REF\u002A\u002A,1*%
%TO.N,N/C*%
X156905000Y-92330000D03*
%TO.P,REF\u002A\u002A,2*%
X155635000Y-92330000D03*
%TO.P,REF\u002A\u002A,3*%
X154365000Y-92330000D03*
%TO.P,REF\u002A\u002A,4*%
X153095000Y-92330000D03*
%TO.P,REF\u002A\u002A,5*%
X153095000Y-97670000D03*
%TO.P,REF\u002A\u002A,6*%
X154365000Y-97670000D03*
%TO.P,REF\u002A\u002A,7*%
X155635000Y-97670000D03*
%TO.P,REF\u002A\u002A,8*%
X156905000Y-97670000D03*
%TD*%
%TO.P,REF\u002A\u002A,1*%
%TO.N,N/C*%
X136905000Y-92330000D03*
%TO.P,REF\u002A\u002A,2*%
X135635000Y-92330000D03*
%TO.P,REF\u002A\u002A,3*%
X134365000Y-92330000D03*
%TO.P,REF\u002A\u002A,4*%
X133095000Y-92330000D03*
%TO.P,REF\u002A\u002A,5*%
X133095000Y-97670000D03*
%TO.P,REF\u002A\u002A,6*%
X134365000Y-97670000D03*
%TO.P,REF\u002A\u002A,7*%
X135635000Y-97670000D03*
%TO.P,REF\u002A\u002A,8*%
X136905000Y-97670000D03*
%TD*%
%TO.P,REF\u002A\u002A,8*%
%TO.N,N/C*%
X96905000Y-97670000D03*
%TO.P,REF\u002A\u002A,7*%
X95635000Y-97670000D03*
%TO.P,REF\u002A\u002A,6*%
X94365000Y-97670000D03*
%TO.P,REF\u002A\u002A,5*%
X93095000Y-97670000D03*
%TO.P,REF\u002A\u002A,4*%
X93095000Y-92330000D03*
%TO.P,REF\u002A\u002A,3*%
X94365000Y-92330000D03*
%TO.P,REF\u002A\u002A,2*%
X95635000Y-92330000D03*
%TO.P,REF\u002A\u002A,1*%
X96905000Y-92330000D03*
%TD*%
D14*
%TO.P,REF\u002A\u002A,8*%
%TO.N,N/C*%
X157670000Y-68095000D03*
%TO.P,REF\u002A\u002A,7*%
X157670000Y-69365000D03*
%TO.P,REF\u002A\u002A,6*%
X157670000Y-70635000D03*
%TO.P,REF\u002A\u002A,5*%
X157670000Y-71905000D03*
%TO.P,REF\u002A\u002A,4*%
X152330000Y-71905000D03*
%TO.P,REF\u002A\u002A,3*%
X152330000Y-70635000D03*
%TO.P,REF\u002A\u002A,2*%
X152330000Y-69365000D03*
%TO.P,REF\u002A\u002A,1*%
X152330000Y-68095000D03*
%TD*%
%TO.P,REF\u002A\u002A,8*%
%TO.N,N/C*%
X137670000Y-68095000D03*
%TO.P,REF\u002A\u002A,7*%
X137670000Y-69365000D03*
%TO.P,REF\u002A\u002A,6*%
X137670000Y-70635000D03*
%TO.P,REF\u002A\u002A,5*%
X137670000Y-71905000D03*
%TO.P,REF\u002A\u002A,4*%
X132330000Y-71905000D03*
%TO.P,REF\u002A\u002A,3*%
X132330000Y-70635000D03*
%TO.P,REF\u002A\u002A,2*%
X132330000Y-69365000D03*
%TO.P,REF\u002A\u002A,1*%
X132330000Y-68095000D03*
%TD*%
%TO.P,REF\u002A\u002A,8*%
%TO.N,N/C*%
X117670000Y-68095000D03*
%TO.P,REF\u002A\u002A,7*%
X117670000Y-69365000D03*
%TO.P,REF\u002A\u002A,6*%
X117670000Y-70635000D03*
%TO.P,REF\u002A\u002A,5*%
X117670000Y-71905000D03*
%TO.P,REF\u002A\u002A,4*%
X112330000Y-71905000D03*
%TO.P,REF\u002A\u002A,3*%
X112330000Y-70635000D03*
%TO.P,REF\u002A\u002A,2*%
X112330000Y-69365000D03*
%TO.P,REF\u002A\u002A,1*%
X112330000Y-68095000D03*
%TD*%
%TO.P,REF\u002A\u002A,8*%
%TO.N,N/C*%
X97643586Y-68056126D03*
%TO.P,REF\u002A\u002A,7*%
X97643586Y-69326126D03*
%TO.P,REF\u002A\u002A,6*%
X97643586Y-70596126D03*
%TO.P,REF\u002A\u002A,5*%
X97643586Y-71866126D03*
%TO.P,REF\u002A\u002A,4*%
X92303586Y-71866126D03*
%TO.P,REF\u002A\u002A,3*%
X92303586Y-70596126D03*
%TO.P,REF\u002A\u002A,2*%
X92303586Y-69326126D03*
%TO.P,REF\u002A\u002A,1*%
X92303586Y-68056126D03*
%TD*%
D13*
%TO.P,REF\u002A\u002A,1*%
%TO.N,N/C*%
X144988629Y-94988629D03*
%TO.P,REF\u002A\u002A,2*%
X144988629Y-104988629D03*
%TD*%
%TO.P,REF\u002A\u002A,1*%
%TO.N,N/C*%
X105000000Y-95000000D03*
%TO.P,REF\u002A\u002A,2*%
X105000000Y-105000000D03*
%TD*%
%TO.P,REF\u002A\u002A,1*%
%TO.N,N/C*%
X85000000Y-95000000D03*
%TO.P,REF\u002A\u002A,2*%
X85000000Y-105000000D03*
%TD*%
%TO.P,REF\u002A\u002A,2*%
%TO.N,N/C*%
X124982944Y-104988629D03*
%TO.P,REF\u002A\u002A,1*%
X124982944Y-94988629D03*
%TD*%
%TO.P,REF\u002A\u002A,1*%
%TO.N,N/C*%
X165000000Y-95000000D03*
%TO.P,REF\u002A\u002A,2*%
X165000000Y-105000000D03*
%TD*%
%TO.P,REF\u002A\u002A,1*%
%TO.N,N/C*%
X124982944Y-54988629D03*
%TO.P,REF\u002A\u002A,2*%
X124982944Y-64988629D03*
%TD*%
%TO.P,REF\u002A\u002A,2*%
%TO.N,N/C*%
X165000000Y-65000000D03*
%TO.P,REF\u002A\u002A,1*%
X165000000Y-55000000D03*
%TD*%
%TO.P,REF\u002A\u002A,2*%
%TO.N,N/C*%
X144988629Y-64988629D03*
%TO.P,REF\u002A\u002A,1*%
X144988629Y-54988629D03*
%TD*%
%TO.P,REF\u002A\u002A,2*%
%TO.N,N/C*%
X145000000Y-85000000D03*
%TO.P,REF\u002A\u002A,1*%
X145000000Y-75000000D03*
%TD*%
%TO.P,REF\u002A\u002A,1*%
%TO.N,N/C*%
X125000000Y-75000000D03*
%TO.P,REF\u002A\u002A,2*%
X125000000Y-85000000D03*
%TD*%
%TO.P,REF\u002A\u002A,2*%
%TO.N,N/C*%
X85000000Y-65000000D03*
%TO.P,REF\u002A\u002A,1*%
X85000000Y-55000000D03*
%TD*%
%TO.P,REF\u002A\u002A,2*%
%TO.N,N/C*%
X105000000Y-85000000D03*
%TO.P,REF\u002A\u002A,1*%
X105000000Y-75000000D03*
%TD*%
%TO.P,REF\u002A\u002A,2*%
%TO.N,N/C*%
X165000000Y-85000000D03*
%TO.P,REF\u002A\u002A,1*%
X165000000Y-75000000D03*
%TD*%
%TO.P,REF\u002A\u002A,2*%
%TO.N,N/C*%
X105000000Y-65000000D03*
%TO.P,REF\u002A\u002A,1*%
X105000000Y-55000000D03*
%TD*%
%TO.P,REF\u002A\u002A,2*%
%TO.N,N/C*%
X84878753Y-84999999D03*
%TO.P,REF\u002A\u002A,1*%
X84878753Y-74999999D03*
%TD*%
D16*
%TO.N,*%
X155600000Y-87500000D03*
X135750000Y-89500000D03*
X130250000Y-92500000D03*
X170000000Y-115000000D03*
X129621247Y-132000001D03*
X149621247Y-132000001D03*
X109621247Y-132000001D03*
X89621247Y-132000001D03*
X148621247Y-126000001D03*
X108121247Y-126000001D03*
X128621247Y-126000001D03*
X88121247Y-126000001D03*
X149500000Y-72000000D03*
X129500000Y-72000000D03*
X109500000Y-72000000D03*
X89500000Y-72000000D03*
X148500000Y-66000000D03*
X128500000Y-66000000D03*
X108000000Y-66000000D03*
X88000000Y-66000000D03*
%TD*%
D17*
%TO.N,*%
X85000000Y-45000000D02*
X79500000Y-45000000D01*
D18*
X95000000Y-55000000D02*
X85000000Y-45000000D01*
D17*
X95000000Y-55000000D02*
X165000000Y-55000000D01*
X85000000Y-55000000D02*
X95000000Y-55000000D01*
X70904762Y-152595238D02*
X70904762Y-156000000D01*
X78500000Y-145000000D02*
X70904762Y-152595238D01*
X85000000Y-145000000D02*
X78500000Y-145000000D01*
X83000000Y-156000000D02*
X75904762Y-156000000D01*
X93810624Y-133310624D02*
X93810624Y-145189376D01*
X93810624Y-145189376D02*
X83000000Y-156000000D01*
X93810624Y-133310624D02*
X96525121Y-130596127D01*
X93621247Y-133500001D02*
X93810624Y-133310624D01*
X125121247Y-145000001D02*
X145121247Y-145000001D01*
X170750000Y-70500000D02*
X157805000Y-70500000D01*
X176250000Y-76000000D02*
X170750000Y-70500000D01*
X157805000Y-70500000D02*
X157670000Y-70635000D01*
X176250000Y-109750000D02*
X176250000Y-76000000D01*
X69392374Y-134925000D02*
X72451247Y-131866127D01*
X71425000Y-105075000D02*
X66000000Y-105075000D01*
X84170000Y-92330000D02*
X71425000Y-105075000D01*
X93095000Y-92330000D02*
X84170000Y-92330000D01*
X70465000Y-102535000D02*
X66000000Y-102535000D01*
X82500000Y-90500000D02*
X70465000Y-102535000D01*
X71638687Y-129326127D02*
X67387560Y-125075000D01*
X72451247Y-129326127D02*
X71638687Y-129326127D01*
X67387560Y-125075000D02*
X66000000Y-125075000D01*
X69392374Y-134925000D02*
X66000000Y-134925000D01*
X69271126Y-74925000D02*
X66000000Y-74925000D01*
X72330000Y-71866126D02*
X69271126Y-74925000D01*
X68078874Y-65075000D02*
X66000000Y-65075000D01*
X72330000Y-69326126D02*
X68078874Y-65075000D01*
X72451247Y-129326127D02*
X71526127Y-129326127D01*
X155635000Y-87535000D02*
X155635000Y-92330000D01*
X155600000Y-87500000D02*
X155635000Y-87535000D01*
X135635000Y-89615000D02*
X135750000Y-89500000D01*
X135635000Y-92330000D02*
X135635000Y-89615000D01*
X132925000Y-92500000D02*
X130250000Y-92500000D01*
X133095000Y-92330000D02*
X132925000Y-92500000D01*
X95635000Y-90500000D02*
X82500000Y-90500000D01*
X95635000Y-92330000D02*
X95635000Y-90500000D01*
X165121247Y-115000001D02*
X170000000Y-115000000D01*
X169864999Y-130635001D02*
X157791247Y-130635001D01*
X176250000Y-124250000D02*
X169864999Y-130635001D01*
X176250000Y-109750000D02*
X176250000Y-124250000D01*
X176250000Y-110000000D02*
X176250000Y-109750000D01*
X144500000Y-110000000D02*
X176250000Y-110000000D01*
X144500000Y-110000000D02*
X144750000Y-110000000D01*
X134500000Y-110000000D02*
X144500000Y-110000000D01*
X134365000Y-97670000D02*
X134365000Y-109865000D01*
X134365000Y-109865000D02*
X134500000Y-110000000D01*
X94500000Y-110000000D02*
X134500000Y-110000000D01*
X154365000Y-100385000D02*
X154365000Y-97670000D01*
X94365000Y-109865000D02*
X94500000Y-110000000D01*
X94365000Y-97670000D02*
X94365000Y-109865000D01*
X144750000Y-110000000D02*
X154365000Y-100385000D01*
X160500000Y-105000000D02*
X165000000Y-105000000D01*
X155635000Y-100135000D02*
X160500000Y-105000000D01*
X155635000Y-97670000D02*
X155635000Y-100135000D01*
X88250000Y-105000000D02*
X85000000Y-105000000D01*
X93095000Y-97670000D02*
X93095000Y-100155000D01*
X93095000Y-100155000D02*
X88250000Y-105000000D01*
X100500000Y-105000000D02*
X105000000Y-105000000D01*
X95635000Y-100135000D02*
X100500000Y-105000000D01*
X95635000Y-97670000D02*
X95635000Y-100135000D01*
X140488629Y-104988629D02*
X144988629Y-104988629D01*
X135635000Y-100135000D02*
X140488629Y-104988629D01*
X135635000Y-97670000D02*
X135635000Y-100135000D01*
X133095000Y-99905000D02*
X133095000Y-97670000D01*
X124982944Y-104988629D02*
X128011371Y-104988629D01*
X128011371Y-104988629D02*
X133095000Y-99905000D01*
X134365000Y-94865000D02*
X134500000Y-95000000D01*
X134365000Y-92330000D02*
X134365000Y-94865000D01*
X94500000Y-95000000D02*
X134500000Y-95000000D01*
X134500000Y-95000000D02*
X154250000Y-95000000D01*
X154250000Y-95000000D02*
X165000000Y-95000000D01*
X154365000Y-94885000D02*
X154250000Y-95000000D01*
X154365000Y-92330000D02*
X154365000Y-94885000D01*
X94365000Y-92330000D02*
X94365000Y-94865000D01*
X85000000Y-95000000D02*
X94500000Y-95000000D01*
X94365000Y-94865000D02*
X94500000Y-95000000D01*
X125104191Y-118517057D02*
X125104191Y-114988630D01*
X152451247Y-130635001D02*
X152986247Y-130635001D01*
X112986247Y-130635001D02*
X125104191Y-118517057D01*
X165121247Y-118500001D02*
X165121247Y-115000001D01*
X152986247Y-130635001D02*
X165121247Y-118500001D01*
X112451247Y-130635001D02*
X112986247Y-130635001D01*
X73025121Y-130596127D02*
X85121247Y-118500001D01*
X132986247Y-130635001D02*
X145109876Y-118511372D01*
X132451247Y-130635001D02*
X132986247Y-130635001D01*
X145109876Y-118511372D02*
X145109876Y-114988630D01*
X93025121Y-130596127D02*
X105121247Y-118500001D01*
X105121247Y-118500001D02*
X105121247Y-115000001D01*
X92424833Y-130596127D02*
X93025121Y-130596127D01*
X72451247Y-130596127D02*
X73025121Y-130596127D01*
X85121247Y-118500001D02*
X85121247Y-115000001D01*
X117791247Y-131905001D02*
X122026247Y-131905001D01*
X137791247Y-131905001D02*
X142026247Y-131905001D01*
X101987373Y-131866127D02*
X105121247Y-135000001D01*
X122026247Y-131905001D02*
X125121247Y-135000001D01*
X162026247Y-131905001D02*
X165121247Y-135000001D01*
X142026247Y-131905001D02*
X145121247Y-135000001D01*
X157791247Y-131905001D02*
X162026247Y-131905001D01*
X97764833Y-131866127D02*
X101987373Y-131866127D01*
X120727820Y-129365001D02*
X125104191Y-124988630D01*
X80756247Y-129365001D02*
X85121247Y-125000001D01*
X81905001Y-131905001D02*
X85000000Y-135000000D01*
X77791247Y-131905001D02*
X81905001Y-131905001D01*
X157791247Y-129365001D02*
X160756247Y-129365001D01*
X100795121Y-129326127D02*
X105121247Y-125000001D01*
X137791247Y-129365001D02*
X140733505Y-129365001D01*
X160756247Y-129365001D02*
X165121247Y-125000001D01*
X117791247Y-129365001D02*
X120727820Y-129365001D01*
X140733505Y-129365001D02*
X145109876Y-124988630D01*
X77791247Y-129365001D02*
X80756247Y-129365001D01*
X97764833Y-129326127D02*
X100795121Y-129326127D01*
X156388747Y-130635001D02*
X157791247Y-130635001D01*
X137791247Y-130635001D02*
X145756247Y-130635001D01*
X125756247Y-130635001D02*
X128621247Y-133500001D01*
X77791247Y-130635001D02*
X85756247Y-130635001D01*
X133621247Y-133500001D02*
X136486247Y-130635001D01*
X136486247Y-130635001D02*
X137791247Y-130635001D01*
X128621247Y-133500001D02*
X133621247Y-133500001D01*
X88621247Y-133500001D02*
X93621247Y-133500001D01*
X96525121Y-130596127D02*
X97764833Y-130596127D01*
X117791247Y-130635001D02*
X125756247Y-130635001D01*
X153523747Y-133500001D02*
X156388747Y-130635001D01*
X148621247Y-133500001D02*
X153523747Y-133500001D01*
X145756247Y-130635001D02*
X148621247Y-133500001D01*
X85756247Y-130635001D02*
X88621247Y-133500001D01*
X116486247Y-130635001D02*
X117791247Y-130635001D01*
X113621247Y-133500001D02*
X116486247Y-130635001D01*
X108621247Y-133500001D02*
X113621247Y-133500001D01*
X105717373Y-130596127D02*
X108621247Y-133500001D01*
X97764833Y-130596127D02*
X105717373Y-130596127D01*
X89755121Y-131866127D02*
X89621247Y-132000001D01*
X92424833Y-131866127D02*
X89755121Y-131866127D01*
X151986247Y-129365001D02*
X148621247Y-126000001D01*
X152451247Y-129365001D02*
X151986247Y-129365001D01*
X132451247Y-129365001D02*
X131986247Y-129365001D01*
X131986247Y-129365001D02*
X128621247Y-126000001D01*
X91447373Y-129326127D02*
X88121247Y-126000001D01*
X92424833Y-129326127D02*
X91447373Y-129326127D01*
X111486247Y-129365001D02*
X108121247Y-126000001D01*
X112451247Y-129365001D02*
X111486247Y-129365001D01*
X112451247Y-131905001D02*
X109716247Y-131905001D01*
X149716247Y-131905001D02*
X149621247Y-132000001D01*
X152451247Y-131905001D02*
X149716247Y-131905001D01*
X109716247Y-131905001D02*
X109621247Y-132000001D01*
X129716247Y-131905001D02*
X129621247Y-132000001D01*
X132451247Y-131905001D02*
X129716247Y-131905001D01*
X85121247Y-115000001D02*
X165121247Y-115000001D01*
X149595000Y-71905000D02*
X149500000Y-72000000D01*
X152330000Y-71905000D02*
X149595000Y-71905000D01*
X129595000Y-71905000D02*
X129500000Y-72000000D01*
X132330000Y-71905000D02*
X129595000Y-71905000D01*
X109595000Y-71905000D02*
X109500000Y-72000000D01*
X112330000Y-71905000D02*
X109595000Y-71905000D01*
X89633874Y-71866126D02*
X89500000Y-72000000D01*
X92303586Y-71866126D02*
X89633874Y-71866126D01*
X151865000Y-69365000D02*
X148500000Y-66000000D01*
X152330000Y-69365000D02*
X151865000Y-69365000D01*
X131865000Y-69365000D02*
X128500000Y-66000000D01*
X132330000Y-69365000D02*
X131865000Y-69365000D01*
X111365000Y-69365000D02*
X108000000Y-66000000D01*
X112330000Y-69365000D02*
X111365000Y-69365000D01*
X91326126Y-69326126D02*
X88000000Y-66000000D01*
X92303586Y-69326126D02*
X91326126Y-69326126D01*
X165000000Y-58500000D02*
X165000000Y-55000000D01*
X152865000Y-70635000D02*
X165000000Y-58500000D01*
X152330000Y-70635000D02*
X152865000Y-70635000D01*
X144988629Y-58511371D02*
X144988629Y-54988629D01*
X132865000Y-70635000D02*
X144988629Y-58511371D01*
X132330000Y-70635000D02*
X132865000Y-70635000D01*
X124982944Y-58517056D02*
X124982944Y-54988629D01*
X112330000Y-70635000D02*
X112865000Y-70635000D01*
X112865000Y-70635000D02*
X124982944Y-58517056D01*
X105000000Y-58500000D02*
X105000000Y-55000000D01*
X92903874Y-70596126D02*
X105000000Y-58500000D01*
X92303586Y-70596126D02*
X92903874Y-70596126D01*
X72903874Y-70596126D02*
X85000000Y-58500000D01*
X72330000Y-70596126D02*
X72903874Y-70596126D01*
X85000000Y-58500000D02*
X85000000Y-55000000D01*
X156267500Y-70635000D02*
X157670000Y-70635000D01*
X153402500Y-73500000D02*
X156267500Y-70635000D01*
X148500000Y-73500000D02*
X153402500Y-73500000D01*
X145635000Y-70635000D02*
X148500000Y-73500000D01*
X137670000Y-70635000D02*
X145635000Y-70635000D01*
X133500000Y-73500000D02*
X136365000Y-70635000D01*
X136365000Y-70635000D02*
X137670000Y-70635000D01*
X125635000Y-70635000D02*
X128500000Y-73500000D01*
X128500000Y-73500000D02*
X133500000Y-73500000D01*
X117670000Y-70635000D02*
X125635000Y-70635000D01*
X88500000Y-73500000D02*
X93500000Y-73500000D01*
X85635000Y-70635000D02*
X88500000Y-73500000D01*
X93500000Y-73500000D02*
X96403874Y-70596126D01*
X77670000Y-70635000D02*
X85635000Y-70635000D01*
X96403874Y-70596126D02*
X97643586Y-70596126D01*
X116365000Y-70635000D02*
X117670000Y-70635000D01*
X108500000Y-73500000D02*
X113500000Y-73500000D01*
X105596126Y-70596126D02*
X108500000Y-73500000D01*
X97643586Y-70596126D02*
X105596126Y-70596126D01*
X113500000Y-73500000D02*
X116365000Y-70635000D01*
X157670000Y-71905000D02*
X161905000Y-71905000D01*
X161905000Y-71905000D02*
X165000000Y-75000000D01*
X160635000Y-69365000D02*
X165000000Y-65000000D01*
X157670000Y-69365000D02*
X160635000Y-69365000D01*
X141905000Y-71905000D02*
X145000000Y-75000000D01*
X137670000Y-71905000D02*
X141905000Y-71905000D01*
X140612258Y-69365000D02*
X144988629Y-64988629D01*
X137670000Y-69365000D02*
X140612258Y-69365000D01*
X121905000Y-71905000D02*
X125000000Y-75000000D01*
X117670000Y-71905000D02*
X121905000Y-71905000D01*
X120606573Y-69365000D02*
X124982944Y-64988629D01*
X117670000Y-69365000D02*
X120606573Y-69365000D01*
X101866126Y-71866126D02*
X105000000Y-75000000D01*
X97643586Y-71866126D02*
X101866126Y-71866126D01*
X100673874Y-69326126D02*
X105000000Y-65000000D01*
X97643586Y-69326126D02*
X100673874Y-69326126D01*
X81783754Y-71905000D02*
X84878753Y-74999999D01*
X77670000Y-71905000D02*
X81783754Y-71905000D01*
X77670000Y-69365000D02*
X80635000Y-69365000D01*
X80635000Y-69365000D02*
X85000000Y-65000000D01*
X84878753Y-84999999D02*
X165000000Y-85000000D01*
%TD*%
M02*
