%TF.GenerationSoftware,KiCad,Pcbnew,(6.0.4)*%
%TF.CreationDate,2022-05-01T19:30:29-04:00*%
%TF.ProjectId,ultrasonic,756c7472-6173-46f6-9e69-632e6b696361,rev?*%
%TF.SameCoordinates,Original*%
%TF.FileFunction,Soldermask,Bot*%
%TF.FilePolarity,Negative*%
%FSLAX46Y46*%
G04 Gerber Fmt 4.6, Leading zero omitted, Abs format (unit mm)*
G04 Created by KiCad (PCBNEW (6.0.4)) date 2022-05-01 19:30:29*
%MOMM*%
%LPD*%
G01*
G04 APERTURE LIST*
%ADD10C,3.200000*%
%ADD11R,1.700000X1.700000*%
%ADD12O,1.700000X1.700000*%
%ADD13C,2.500000*%
%ADD14C,2.000000*%
G04 APERTURE END LIST*
D10*
%TO.C,*%
X65000000Y-45000000D03*
%TD*%
%TO.C,*%
X175000000Y-45000000D03*
%TD*%
%TO.C,*%
X175000000Y-155000000D03*
%TD*%
%TO.C,REF\u002A\u002A*%
X65000000Y-155000000D03*
%TD*%
D11*
%TO.C,REF\u002A\u002A*%
X79500000Y-45000000D03*
D12*
X82040000Y-45000000D03*
X84580000Y-45000000D03*
%TD*%
D13*
%TO.C,REF\u002A\u002A*%
X70904762Y-156000000D03*
%TD*%
D11*
%TO.C,REF\u002A\u002A*%
X75904762Y-156000000D03*
%TD*%
D12*
%TO.C,REF\u002A\u002A*%
X66000000Y-145085000D03*
X66000000Y-142545000D03*
X66000000Y-140005000D03*
X66000000Y-137465000D03*
D11*
X66000000Y-134925000D03*
%TD*%
%TO.C,REF\u002A\u002A*%
X66000000Y-125075000D03*
D12*
X66000000Y-122535000D03*
X66000000Y-119995000D03*
X66000000Y-117455000D03*
X66000000Y-114915000D03*
%TD*%
%TO.C,REF\u002A\u002A*%
X66000000Y-94915000D03*
X66000000Y-97455000D03*
X66000000Y-99995000D03*
X66000000Y-102535000D03*
D11*
X66000000Y-105075000D03*
%TD*%
D12*
%TO.C,REF\u002A\u002A*%
X66000000Y-85085000D03*
X66000000Y-82545000D03*
X66000000Y-80005000D03*
X66000000Y-77465000D03*
D11*
X66000000Y-74925000D03*
%TD*%
D12*
%TO.C,REF\u002A\u002A*%
X66000000Y-54915000D03*
X66000000Y-57455000D03*
X66000000Y-59995000D03*
X66000000Y-62535000D03*
D11*
X66000000Y-65075000D03*
%TD*%
D14*
%TO.C,REF\u002A\u002A*%
X145121247Y-135000001D03*
X145121247Y-145000001D03*
%TD*%
%TO.C,REF\u002A\u002A*%
X145109876Y-124988630D03*
X145109876Y-114988630D03*
%TD*%
%TO.C,REF\u002A\u002A*%
X125121247Y-145000001D03*
X125121247Y-135000001D03*
%TD*%
%TO.C,REF\u002A\u002A*%
X85121247Y-125000001D03*
X85121247Y-115000001D03*
%TD*%
%TO.C,REF\u002A\u002A*%
X85000000Y-135000000D03*
X85000000Y-145000000D03*
%TD*%
%TO.C,REF\u002A\u002A*%
X105121247Y-135000001D03*
X105121247Y-145000001D03*
%TD*%
%TO.C,REF\u002A\u002A*%
X165121247Y-135000001D03*
X165121247Y-145000001D03*
%TD*%
%TO.C,REF\u002A\u002A*%
X105121247Y-125000001D03*
X105121247Y-115000001D03*
%TD*%
%TO.C,REF\u002A\u002A*%
X165121247Y-125000001D03*
X165121247Y-115000001D03*
%TD*%
%TO.C,REF\u002A\u002A*%
X125104191Y-114988630D03*
X125104191Y-124988630D03*
%TD*%
%TO.C,REF\u002A\u002A*%
X144988629Y-94988629D03*
X144988629Y-104988629D03*
%TD*%
%TO.C,REF\u002A\u002A*%
X105000000Y-95000000D03*
X105000000Y-105000000D03*
%TD*%
%TO.C,REF\u002A\u002A*%
X85000000Y-95000000D03*
X85000000Y-105000000D03*
%TD*%
%TO.C,REF\u002A\u002A*%
X124982944Y-104988629D03*
X124982944Y-94988629D03*
%TD*%
%TO.C,REF\u002A\u002A*%
X165000000Y-95000000D03*
X165000000Y-105000000D03*
%TD*%
%TO.C,REF\u002A\u002A*%
X124982944Y-54988629D03*
X124982944Y-64988629D03*
%TD*%
%TO.C,REF\u002A\u002A*%
X165000000Y-65000000D03*
X165000000Y-55000000D03*
%TD*%
%TO.C,REF\u002A\u002A*%
X144988629Y-64988629D03*
X144988629Y-54988629D03*
%TD*%
%TO.C,REF\u002A\u002A*%
X145000000Y-85000000D03*
X145000000Y-75000000D03*
%TD*%
%TO.C,REF\u002A\u002A*%
X125000000Y-75000000D03*
X125000000Y-85000000D03*
%TD*%
%TO.C,REF\u002A\u002A*%
X85000000Y-65000000D03*
X85000000Y-55000000D03*
%TD*%
%TO.C,REF\u002A\u002A*%
X105000000Y-85000000D03*
X105000000Y-75000000D03*
%TD*%
%TO.C,REF\u002A\u002A*%
X165000000Y-85000000D03*
X165000000Y-75000000D03*
%TD*%
%TO.C,REF\u002A\u002A*%
X105000000Y-65000000D03*
X105000000Y-55000000D03*
%TD*%
%TO.C,REF\u002A\u002A*%
X84878753Y-84999999D03*
X84878753Y-74999999D03*
%TD*%
M02*
