%TF.GenerationSoftware,KiCad,Pcbnew,(6.0.4)*%
%TF.CreationDate,2022-05-01T19:30:29-04:00*%
%TF.ProjectId,ultrasonic,756c7472-6173-46f6-9e69-632e6b696361,rev?*%
%TF.SameCoordinates,Original*%
%TF.FileFunction,Paste,Top*%
%TF.FilePolarity,Positive*%
%FSLAX46Y46*%
G04 Gerber Fmt 4.6, Leading zero omitted, Abs format (unit mm)*
G04 Created by KiCad (PCBNEW (6.0.4)) date 2022-05-01 19:30:29*
%MOMM*%
%LPD*%
G01*
G04 APERTURE LIST*
G04 Aperture macros list*
%AMRoundRect*
0 Rectangle with rounded corners*
0 $1 Rounding radius*
0 $2 $3 $4 $5 $6 $7 $8 $9 X,Y pos of 4 corners*
0 Add a 4 corners polygon primitive as box body*
4,1,4,$2,$3,$4,$5,$6,$7,$8,$9,$2,$3,0*
0 Add four circle primitives for the rounded corners*
1,1,$1+$1,$2,$3*
1,1,$1+$1,$4,$5*
1,1,$1+$1,$6,$7*
1,1,$1+$1,$8,$9*
0 Add four rect primitives between the rounded corners*
20,1,$1+$1,$2,$3,$4,$5,0*
20,1,$1+$1,$4,$5,$6,$7,0*
20,1,$1+$1,$6,$7,$8,$9,0*
20,1,$1+$1,$8,$9,$2,$3,0*%
G04 Aperture macros list end*
%ADD10RoundRect,0.042000X-0.748000X-0.258000X0.748000X-0.258000X0.748000X0.258000X-0.748000X0.258000X0*%
%ADD11RoundRect,0.042000X-0.258000X0.748000X-0.258000X-0.748000X0.258000X-0.748000X0.258000X0.748000X0*%
G04 APERTURE END LIST*
D10*
%TO.C,REF\u002A\u002A*%
X132451247Y-128095001D03*
X132451247Y-129365001D03*
X132451247Y-130635001D03*
X132451247Y-131905001D03*
X137791247Y-131905001D03*
X137791247Y-130635001D03*
X137791247Y-129365001D03*
X137791247Y-128095001D03*
%TD*%
%TO.C,REF\u002A\u002A*%
X152451247Y-128095001D03*
X152451247Y-129365001D03*
X152451247Y-130635001D03*
X152451247Y-131905001D03*
X157791247Y-131905001D03*
X157791247Y-130635001D03*
X157791247Y-129365001D03*
X157791247Y-128095001D03*
%TD*%
%TO.C,REF\u002A\u002A*%
X72451247Y-128056127D03*
X72451247Y-129326127D03*
X72451247Y-130596127D03*
X72451247Y-131866127D03*
X77791247Y-131866127D03*
X77791247Y-130596127D03*
X77791247Y-129326127D03*
X77791247Y-128056127D03*
%TD*%
%TO.C,REF\u002A\u002A*%
X92424833Y-128056127D03*
X92424833Y-129326127D03*
X92424833Y-130596127D03*
X92424833Y-131866127D03*
X97764833Y-131866127D03*
X97764833Y-130596127D03*
X97764833Y-129326127D03*
X97764833Y-128056127D03*
%TD*%
%TO.C,REF\u002A\u002A*%
X112451247Y-128095001D03*
X112451247Y-129365001D03*
X112451247Y-130635001D03*
X112451247Y-131905001D03*
X117791247Y-131905001D03*
X117791247Y-130635001D03*
X117791247Y-129365001D03*
X117791247Y-128095001D03*
%TD*%
%TO.C,REF\u002A\u002A*%
X72330000Y-68056126D03*
X72330000Y-69326126D03*
X72330000Y-70596126D03*
X72330000Y-71866126D03*
X77670000Y-71866126D03*
X77670000Y-70596126D03*
X77670000Y-69326126D03*
X77670000Y-68056126D03*
%TD*%
D11*
%TO.C,REF\u002A\u002A*%
X156905000Y-92330000D03*
X155635000Y-92330000D03*
X154365000Y-92330000D03*
X153095000Y-92330000D03*
X153095000Y-97670000D03*
X154365000Y-97670000D03*
X155635000Y-97670000D03*
X156905000Y-97670000D03*
%TD*%
%TO.C,REF\u002A\u002A*%
X136905000Y-92330000D03*
X135635000Y-92330000D03*
X134365000Y-92330000D03*
X133095000Y-92330000D03*
X133095000Y-97670000D03*
X134365000Y-97670000D03*
X135635000Y-97670000D03*
X136905000Y-97670000D03*
%TD*%
%TO.C,REF\u002A\u002A*%
X96905000Y-97670000D03*
X95635000Y-97670000D03*
X94365000Y-97670000D03*
X93095000Y-97670000D03*
X93095000Y-92330000D03*
X94365000Y-92330000D03*
X95635000Y-92330000D03*
X96905000Y-92330000D03*
%TD*%
D10*
%TO.C,REF\u002A\u002A*%
X157670000Y-68095000D03*
X157670000Y-69365000D03*
X157670000Y-70635000D03*
X157670000Y-71905000D03*
X152330000Y-71905000D03*
X152330000Y-70635000D03*
X152330000Y-69365000D03*
X152330000Y-68095000D03*
%TD*%
%TO.C,REF\u002A\u002A*%
X137670000Y-68095000D03*
X137670000Y-69365000D03*
X137670000Y-70635000D03*
X137670000Y-71905000D03*
X132330000Y-71905000D03*
X132330000Y-70635000D03*
X132330000Y-69365000D03*
X132330000Y-68095000D03*
%TD*%
%TO.C,REF\u002A\u002A*%
X117670000Y-68095000D03*
X117670000Y-69365000D03*
X117670000Y-70635000D03*
X117670000Y-71905000D03*
X112330000Y-71905000D03*
X112330000Y-70635000D03*
X112330000Y-69365000D03*
X112330000Y-68095000D03*
%TD*%
%TO.C,REF\u002A\u002A*%
X97643586Y-68056126D03*
X97643586Y-69326126D03*
X97643586Y-70596126D03*
X97643586Y-71866126D03*
X92303586Y-71866126D03*
X92303586Y-70596126D03*
X92303586Y-69326126D03*
X92303586Y-68056126D03*
%TD*%
M02*
